<?xml version="1.0" standalone="no"?>
<!DOCTYPE svg PUBLIC "-//W3C//DTD SVG 20010904//EN"
 "http://www.w3.org/TR/2001/REC-SVG-20010904/DTD/svg10.dtd">
<svg version="1.0" xmlns="http://www.w3.org/2000/svg"
 width="316.000000pt" height="434.000000pt" viewBox="0 0 316.000000 434.000000"
 preserveAspectRatio="xMidYMid meet">

<g transform="translate(0.000000,434.000000) scale(0.100000,-0.100000)"
fill="#000000" stroke="none">
<path d="M554 4147 c0 -209 -40 -343 -133 -449 l-40 -45 122 -121 c67 -66 133
-130 147 -140 l26 -20 2 -384 3 -383 -30 -20 c-39 -25 -57 -64 -65 -140 -6
-56 -9 -63 -59 -109 -162 -153 -217 -209 -217 -222 0 -8 -40 -57 -90 -108 -54
-56 -98 -111 -110 -140 -30 -66 -50 -169 -50 -255 0 -62 4 -82 25 -117 36 -61
49 -66 142 -54 146 20 238 66 262 131 41 109 41 108 100 125 31 9 64 18 74 20
16 5 17 -13 17 -274 l0 -280 -40 -7 c-49 -8 -86 -38 -125 -99 -32 -50 -36 -52
-122 -66 -79 -13 -106 -43 -98 -109 7 -60 36 -161 45 -161 5 0 11 11 14 25 7
29 22 31 54 9 20 -13 22 -13 22 0 0 9 -14 23 -31 31 -28 15 -32 15 -49 0 -17
-15 -19 -15 -25 15 -4 17 -5 33 -2 36 3 4 133 -52 146 -63 3 -2 -5 -13 -17
-26 -22 -23 -30 -57 -13 -57 5 0 12 11 15 25 4 14 13 25 21 25 25 0 17 -36
-16 -71 l-31 -34 -23 29 -23 29 -7 -52 c-8 -57 4 -80 55 -106 55 -29 94 -28
150 1 102 53 267 33 352 -44 22 -20 42 -31 47 -26 16 19 42 123 43 173 0 56
10 63 39 28 31 -37 33 -80 9 -185 -25 -108 -28 -168 -9 -203 7 -13 14 -19 15
-14 2 6 8 29 14 53 13 51 30 55 30 6 0 -62 21 -124 53 -156 l31 -31 26 32 c32
38 53 41 44 7 -7 -31 27 -111 54 -125 33 -18 60 -13 78 14 l16 24 21 -25 c29
-33 50 -24 85 35 l27 46 3 -32 c2 -18 -2 -42 -8 -53 -20 -38 0 -36 35 2 21 23
40 58 50 95 9 32 23 81 31 110 15 55 56 113 81 113 11 0 9 -7 -9 -32 -19 -28
-23 -49 -29 -153 -3 -66 -5 -121 -4 -123 6 -7 54 66 66 101 12 34 14 36 21 16
8 -20 5 -53 -8 -117 -3 -15 -1 -21 6 -17 23 14 41 69 49 151 10 94 31 139 31
65 0 -26 7 -53 19 -70 11 -15 24 -42 29 -61 6 -22 11 -29 15 -20 3 8 15 43 27
78 16 45 21 76 18 112 -3 28 -1 50 3 50 17 0 39 -60 39 -103 0 -57 19 -76 54
-53 27 17 42 68 34 111 -7 34 20 33 28 -1 4 -14 4 -48 1 -76 -6 -49 -6 -50 12
-34 10 9 28 44 40 76 21 57 50 90 78 90 10 0 9 -6 -3 -25 -15 -24 -15 -26 15
-55 24 -24 36 -30 53 -25 53 17 88 71 98 155 l7 55 18 -40 c14 -32 17 -57 13
-125 -6 -95 0 -128 24 -144 13 -8 22 -6 37 8 17 16 21 31 21 90 1 67 1 69 14
41 7 -16 27 -52 45 -79 18 -30 31 -63 31 -83 0 -18 4 -33 10 -33 19 0 33 46
41 134 9 89 29 144 29 77 0 -19 9 -66 21 -104 14 -46 19 -86 16 -112 l-6 -40
20 23 c24 30 49 114 49 166 0 65 19 29 22 -42 2 -34 6 -62 9 -62 15 0 39 84
39 133 0 45 -14 89 -56 182 -2 6 16 21 40 34 58 30 114 86 137 136 44 95 5
253 -97 397 -72 101 -92 164 -73 228 12 38 78 120 97 120 5 0 7 -34 4 -75 -2
-41 -2 -75 0 -75 3 0 20 29 37 65 21 42 50 80 84 110 l52 45 -40 1 c-126 3
-165 -12 -237 -88 -98 -106 -105 -167 -35 -319 59 -129 77 -193 77 -271 0
-113 -49 -171 -164 -195 -44 -10 -66 -9 -108 1 -60 15 -239 79 -251 90 -15 14
25 97 82 171 102 133 201 283 201 306 0 13 22 61 49 106 96 163 109 235 67
357 -19 53 -26 95 -26 146 0 133 -40 234 -132 331 -35 37 -48 59 -48 80 0 73
-93 206 -176 250 -31 17 -34 22 -34 67 0 49 -24 112 -39 103 -5 -3 -14 -19
-21 -36 -27 -66 -108 -41 -96 30 21 123 20 142 -16 194 -30 45 -85 84 -141
100 -16 5 -16 7 3 26 11 11 20 29 20 41 0 17 -4 20 -23 16 -39 -10 -50 5 -43
57 7 45 6 47 -44 100 -46 48 -50 57 -49 97 2 45 -17 95 -45 118 -13 11 -17 9
-26 -13 -5 -14 -14 -26 -20 -26 -15 0 -12 -26 6 -41 16 -13 68 -107 69 -124 1
-5 15 -24 33 -42 36 -35 45 -68 11 -37 -22 19 -22 19 -14 -6 4 -14 16 -47 26
-74 10 -28 17 -52 15 -54 -3 -2 -14 1 -25 8 -23 12 -29 -1 -8 -18 7 -6 34 -19
61 -29 67 -25 71 -43 10 -43 -56 0 -50 -10 24 -36 69 -24 70 -39 2 -35 -34 3
-120 31 -147 49 -30 19 -30 -1 -1 -28 25 -23 106 -50 149 -50 73 0 96 -28 123
-149 9 -41 21 -80 28 -88 6 -7 8 -16 4 -20 -12 -12 -49 33 -87 107 -31 61 -38
70 -39 47 0 -35 25 -95 52 -124 38 -40 12 -35 -66 12 -56 34 -86 61 -110 97
l-34 50 -22 -48 c-12 -27 -26 -68 -33 -91 -8 -33 -14 -40 -24 -31 -16 13 -17
62 -1 91 25 47 27 86 6 112 -16 21 -18 28 -8 40 10 12 9 15 -4 15 -19 0 -20 7
-1 40 8 14 14 34 15 44 0 19 -1 19 -17 2 -10 -10 -36 -28 -58 -40 -32 -17 -42
-30 -53 -68 -8 -30 -25 -57 -48 -77 -47 -42 -63 -39 -25 4 22 26 31 46 31 72
0 38 24 67 121 145 46 37 72 77 84 133 l7 30 -27 -32 c-32 -40 -48 -43 -35 -7
16 41 12 116 -8 140 -9 12 -35 31 -58 42 -46 23 -76 52 -53 52 19 0 103 -26
128 -40 12 -6 21 -7 21 -2 0 18 -37 41 -107 67 -74 28 -98 50 -43 39 16 -4 41
-3 56 0 41 11 15 28 -48 31 -29 1 -61 5 -70 9 -25 11 -55 -10 -62 -45 -5 -26
-8 -29 -21 -19 -12 10 -16 9 -21 -4 -4 -10 -18 -16 -39 -16 -18 0 -44 -9 -58
-20 -14 -11 -30 -20 -36 -20 -13 0 -14 -20 -2 -39 9 -14 -47 -151 -75 -182
-13 -14 -12 -18 8 -31 l22 -15 -21 -12 c-20 -10 -24 -7 -42 34 -58 132 -64
205 -16 205 27 0 34 -17 10 -26 -19 -8 -20 -44 -1 -44 7 0 16 9 19 20 3 12 14
20 26 20 15 0 21 6 21 24 0 33 -23 48 -79 54 -48 4 -50 4 -76 -36 -21 -32 -25
-47 -20 -72 5 -23 2 -37 -11 -51 -17 -18 -16 -20 5 -43 l23 -25 -20 -29 c-12
-16 -28 -35 -37 -42 -24 -20 -18 -33 7 -16 35 25 76 21 84 -8 8 -34 0 -43 -47
-57 -37 -12 -38 -13 -22 -31 15 -17 15 -21 -6 -58 -12 -21 -29 -63 -38 -92
-14 -48 -68 -138 -83 -138 -3 0 -12 19 -20 43 -19 53 -83 91 -139 81 l-34 -7
5 362 4 362 139 139 139 140 -13 32 c-94 229 -121 358 -104 491 6 45 14 91 18
102 4 12 -7 5 -29 -19 -98 -107 -109 -286 -34 -544 l12 -42 -89 -90 c-49 -50
-93 -89 -96 -88 -4 2 -48 42 -98 90 l-92 88 26 82 c38 122 49 220 35 324 -10
77 -51 207 -69 218 -3 2 -6 -59 -7 -137z m52 -14 c25 -108 12 -254 -37 -400
-17 -51 -25 -63 -42 -63 -16 0 -4 -15 53 -67 41 -37 99 -91 129 -120 59 -58
61 -59 62 -40 1 17 227 207 247 207 12 0 9 4 -8 13 -56 28 -110 333 -81 463 7
29 15 56 19 58 4 2 7 -44 7 -102 1 -122 24 -226 81 -357 27 -63 32 -81 22 -90
-103 -93 -300 -255 -309 -255 -16 0 -279 270 -279 286 0 6 16 38 35 70 71 117
80 153 80 316 0 81 1 145 3 143 3 -2 11 -30 18 -62z m193 -830 c0 -35 -1 -36
-11 -15 -6 12 -19 22 -29 22 -24 0 -49 10 -49 21 0 5 20 9 45 9 l45 0 -1 -37z
m1036 -33 c3 -5 2 -10 -4 -10 -5 0 -13 5 -16 10 -3 6 -2 10 4 10 5 0 13 -4 16
-10z m-1045 -345 c0 -162 -4 -295 -9 -295 -11 0 -19 111 -27 378 l-7 212 22 0
c21 0 21 0 21 -295z m760 260 c8 -7 33 -21 55 -32 37 -17 40 -21 38 -57 -3
-51 -20 -69 -55 -62 -43 9 -43 -11 2 -39 25 -16 40 -33 40 -45 0 -24 -22 -26
-56 -3 -25 16 -25 16 -19 -10 4 -14 1 -35 -5 -47 l-12 -22 -26 25 c-15 14 -46
31 -70 38 l-42 12 20 22 21 22 -25 29 c-21 26 -22 32 -11 48 9 11 12 30 8 47
-5 28 9 40 22 19 11 -18 26 -10 20 10 -6 17 -2 20 29 20 38 0 48 -13 19 -24
-15 -6 -15 -8 0 -23 15 -15 18 -15 41 1 14 9 26 21 26 26 0 14 -42 40 -67 40
-25 0 -40 16 -21 23 18 5 50 -3 68 -18z m-217 -305 c-30 -12 -30 -32 0 -25 12
4 35 1 51 -5 22 -8 34 -7 57 7 35 21 47 12 51 -42 3 -38 2 -40 -27 -40 -23 0
-30 -4 -30 -20 0 -16 -6 -19 -27 -17 -15 1 -42 -5 -59 -13 -17 -9 -33 -15 -35
-12 -6 6 -34 115 -34 132 0 21 29 45 53 44 l22 0 -22 -9z m-83 -126 c0 -31 3
-35 20 -29 19 6 20 3 14 -63 -8 -80 5 -98 30 -46 22 46 40 39 44 -18 2 -34 -2
-51 -18 -69 l-20 -24 6 38 c4 23 2 37 -4 37 -6 0 -14 -19 -17 -43 -6 -40 -1
-62 33 -130 2 -5 -7 -2 -21 7 -13 9 -47 19 -76 23 l-51 6 45 42 c53 49 61 82
10 36 -45 -39 -68 -41 -26 -2 17 16 31 38 31 49 0 11 3 34 6 51 6 26 4 30 -10
25 -13 -5 -16 2 -17 47 l0 54 -17 -33 c-14 -28 -14 -39 -4 -79 8 -27 9 -50 4
-55 -5 -5 -30 -11 -55 -13 -31 -2 -59 -13 -82 -31 -57 -43 -51 -21 10 37 38
37 59 67 66 94 13 48 65 125 84 125 10 0 15 -11 15 -36z m510 -108 c0 -2 -13
-18 -29 -35 -16 -17 -37 -53 -47 -79 -10 -26 -18 -48 -18 -48 -1 -1 -12 -5
-25 -9 -23 -7 -24 -6 -17 35 10 65 33 100 79 121 42 18 57 23 57 15z m-825
-51 c26 -25 31 -62 15 -100 l-8 -20 -7 20 c-22 64 -19 62 -82 57 -76 -6 -105
-17 -101 -40 3 -14 17 -18 78 -22 67 -4 75 -7 75 -25 0 -18 -8 -21 -68 -25
-37 -3 -67 -9 -67 -15 0 -5 31 -12 69 -15 38 -3 73 -8 77 -12 15 -16 -19 -36
-73 -43 -65 -8 -83 -14 -83 -26 0 -6 27 -7 65 -3 55 6 65 4 65 -9 0 -16 -20
-27 -53 -27 -12 0 -46 -11 -75 -25 -30 -14 -65 -25 -77 -25 -24 0 -55 33 -55
59 0 8 -7 22 -16 32 -10 11 -14 25 -9 36 6 16 10 14 36 -15 16 -18 29 -41 29
-52 0 -11 9 -24 21 -30 25 -14 41 -3 16 11 -12 7 -15 17 -11 34 4 16 0 26 -13
33 -16 10 -16 14 -5 32 17 27 10 35 -16 21 -28 -15 -32 -14 -32 10 0 12 18 38
42 60 43 39 38 53 -8 23 -29 -19 -39 -14 -29 16 16 50 163 112 218 91 22 -9
27 -8 27 4 0 23 28 18 55 -10z m525 -48 c4 -53 10 -71 29 -89 l23 -23 -12 24
c-12 24 -10 115 4 128 10 11 52 -35 72 -79 18 -39 18 -41 -1 -54 -17 -13 -13
-14 37 -14 51 0 57 -2 60 -22 2 -17 9 -22 25 -20 12 2 75 -24 140 -56 65 -33
134 -63 153 -66 19 -4 44 -10 55 -12 13 -3 2 12 -30 41 -27 25 -44 45 -38 45
6 0 45 -13 86 -30 88 -35 88 -35 146 -13 l44 17 23 -30 c31 -38 64 -125 64
-169 0 -25 -6 -37 -22 -46 -31 -17 -112 4 -183 47 -68 40 -156 68 -191 60 -29
-8 -32 -44 -8 -86 28 -46 15 -56 -77 -64 -135 -12 -154 -28 -99 -81 53 -51 30
-98 -63 -129 -54 -18 -200 -22 -244 -6 -27 10 -27 9 9 -24 52 -49 120 -68 273
-75 l130 -6 -35 -26 c-60 -44 -98 -54 -205 -53 -125 0 -159 12 -220 74 -45 45
-47 51 -33 67 27 32 52 185 44 276 -4 45 -11 86 -15 90 -5 5 -12 -27 -15 -70
-11 -128 -25 -183 -53 -209 -42 -39 -64 -31 -117 41 -74 101 -186 327 -186
376 0 4 14 9 31 11 43 4 59 30 35 57 -28 31 -11 44 51 38 88 -9 193 -66 236
-127 14 -20 15 -20 48 10 18 18 66 50 106 72 40 22 73 41 73 41 0 1 -24 3 -53
4 -28 1 -72 9 -96 18 -55 19 -54 19 -41 -6 16 -29 7 -33 -23 -8 -27 21 -35 53
-17 64 17 10 32 45 20 45 -6 0 -16 -11 -22 -25 -15 -32 -28 -32 -28 1 0 18 13
38 40 63 41 37 52 58 25 47 -20 -7 -19 4 3 20 29 22 37 11 42 -59z m-250 3 c0
-21 -91 -99 -135 -116 -25 -9 -48 -14 -52 -11 -3 4 3 9 13 13 51 16 65 26 83
63 13 24 31 43 48 49 37 14 43 14 43 2z m-422 -582 c-1 -195 -3 -223 -8 -143
-12 157 -11 385 0 385 6 0 9 -86 8 -242z m226 139 c60 -134 126 -228 228 -329
78 -77 84 -85 52 -72 -138 58 -235 173 -292 350 -30 90 -47 162 -36 152 3 -4
25 -49 48 -101z m-684 -126 c11 -22 40 -54 64 -71 25 -16 47 -34 50 -39 3 -4
-5 -23 -19 -41 -19 -26 -22 -37 -14 -57 21 -57 2 -127 -48 -178 -34 -34 -50
-32 -70 10 -20 41 -28 43 -44 13 -32 -62 -98 -92 -113 -51 -9 22 3 198 16 243
16 56 66 127 105 150 19 11 37 29 40 40 7 27 10 26 33 -19z m642 -62 c39 -96
88 -174 154 -248 46 -51 56 -89 29 -111 -19 -15 -28 -9 -74 54 -68 92 -120
221 -146 361 -9 54 -4 45 37 -56z m1408 6 c18 -9 49 -48 82 -101 29 -47 54
-81 56 -75 2 6 -1 34 -7 61 -9 42 -8 56 4 80 22 42 50 55 79 36 43 -28 41
-108 -5 -198 -10 -20 -19 -40 -19 -42 0 -3 29 -29 65 -57 39 -30 65 -58 65
-70 0 -30 -102 -219 -142 -263 -37 -40 -38 -41 -54 -21 -31 39 2 198 60 283
l33 50 -50 6 c-138 16 -301 160 -283 249 8 38 43 77 68 77 11 0 32 -7 48 -15z
m-117 -303 c28 -29 66 -62 83 -73 l32 -19 -24 -59 c-13 -32 -31 -87 -40 -122
-9 -34 -24 -74 -34 -88 -10 -14 -24 -60 -30 -101 -19 -128 -46 -203 -89 -251
-21 -24 -42 -41 -45 -38 -3 3 0 31 6 62 10 45 9 76 -1 149 -16 109 -17 144 -7
258 8 85 8 85 -25 134 -30 45 -32 51 -19 80 26 62 60 172 66 210 l6 40 34 -64
c19 -36 58 -89 87 -118z m-1348 101 c42 -76 86 -265 105 -448 6 -55 13 -115
16 -132 4 -18 4 -33 1 -33 -3 0 -31 10 -62 22 -55 21 -56 22 -48 52 13 52 8
135 -10 153 -14 14 -19 13 -54 -16 -20 -17 -41 -31 -45 -31 -5 0 -8 106 -8
235 l0 234 28 15 c15 8 30 15 34 16 3 0 23 -30 43 -67z m475 -153 c19 -19 22
-19 43 -5 32 22 39 19 32 -19 -5 -22 -1 -44 9 -64 22 -42 20 -76 -5 -120 l-22
-37 30 -60 c17 -33 34 -75 38 -92 11 -53 -17 -41 -47 20 -14 30 -43 80 -63
112 l-38 58 -13 -25 c-13 -25 -42 -44 -52 -34 -2 3 3 17 12 31 19 30 15 55 -9
55 -9 0 -27 11 -40 26 -23 24 -23 25 -30 5 -3 -12 -15 -21 -26 -21 -15 0 -19
-7 -19 -36 0 -24 -4 -34 -12 -32 -9 3 -14 30 -16 76 l-3 72 47 0 c45 0 46 1
42 28 -3 15 -7 33 -9 41 -11 39 116 56 151 21z m-345 -41 c4 -11 20 -36 37
-55 25 -29 29 -40 24 -68 -4 -21 -2 -37 4 -41 8 -5 6 -13 -6 -27 -12 -13 -20
-41 -23 -86 -4 -64 -5 -65 -12 -27 -4 22 -8 67 -8 101 -1 33 -10 87 -21 119
-21 62 -26 105 -11 105 5 0 13 -9 16 -21z m596 -1 c36 -20 56 -45 45 -56 -3
-2 -24 3 -46 12 -30 12 -46 13 -60 6 -40 -21 -101 -2 -82 26 25 38 88 43 143
12z m343 -68 c36 -13 32 -30 -6 -30 -49 0 -92 -32 -119 -86 -20 -42 -24 -46
-29 -27 -5 22 -5 22 -29 4 l-24 -18 26 -18 c38 -24 69 -13 133 47 30 28 54 47
54 42 0 -21 -61 -113 -95 -142 -28 -25 -42 -31 -63 -26 -50 12 -76 29 -82 54
-6 24 -7 24 -33 -17 -15 -24 -27 -56 -27 -72 0 -46 -19 -48 -57 -8 -27 30 -32
42 -27 65 4 15 7 31 8 36 0 5 -12 12 -28 17 -52 14 -86 65 -56 84 11 7 78 -20
102 -42 10 -9 20 -14 23 -11 6 6 -66 73 -86 80 -11 4 -11 8 -2 18 10 11 20 8
52 -13 62 -41 71 -35 46 27 -8 17 -5 18 31 12 48 -9 48 -10 34 -35 -13 -24 -5
-26 30 -6 14 8 37 14 52 15 15 0 30 5 34 11 11 18 68 49 91 49 12 0 33 -4 47
-10z m1046 -56 c0 -4 -14 -23 -32 -42 l-31 -37 6 35 c4 19 13 38 20 42 14 9
37 10 37 2z m-956 -85 c-11 -23 -13 -34 -5 -37 14 -5 14 -34 0 -66 -11 -24
-85 -63 -97 -51 -4 3 8 17 26 31 36 29 39 40 16 65 -15 16 -13 21 27 64 46 50
61 47 33 -6z m745 -58 c-20 -56 3 -122 85 -254 113 -182 135 -281 82 -371 -24
-42 -85 -93 -128 -109 -31 -11 -20 6 41 63 106 99 104 183 -13 384 -96 166
-114 242 -74 306 17 27 20 19 7 -19z m-2038 -132 l69 -12 0 -34 c0 -33 0 -34
36 -27 28 5 40 2 59 -16 25 -24 26 -24 169 -4 60 8 61 -11 2 -31 -21 -7 -45
-23 -53 -35 -14 -20 -112 -70 -137 -70 -6 0 -18 5 -26 10 -13 9 -10 14 15 35
l30 25 -25 0 c-14 0 -31 -4 -39 -9 -16 -10 -53 -105 -55 -141 -1 -23 3 -25 57
-31 107 -12 104 -45 -8 -78 -96 -29 -136 -24 -205 23 -29 20 -60 36 -70 36
-25 0 -65 34 -56 48 5 9 15 8 36 -3 58 -30 142 -16 193 33 29 27 62 80 55 88
-2 2 -21 -2 -41 -8 -28 -9 -46 -8 -79 2 -24 7 -50 13 -58 12 -8 -1 -21 10 -28
25 -11 25 -10 30 9 46 24 20 69 23 87 5 9 -9 17 -6 37 12 13 12 22 27 18 33
-6 9 -95 5 -123 -7 -8 -3 -26 3 -40 14 -30 23 -22 35 36 55 48 17 50 18 135 4z
m537 -49 c-6 -39 11 -39 68 2 50 36 64 34 33 -5 -35 -46 -104 -80 -144 -73
-34 7 -65 37 -65 64 0 10 5 10 22 -2 37 -26 65 -21 73 14 4 17 9 30 12 30 3 0
3 -13 1 -30z m772 0 c0 -31 -38 -40 -127 -32 l-78 8 50 11 c28 7 61 16 75 22
14 5 37 10 53 10 21 1 27 -4 27 -19z m-510 -34 c0 -2 -7 -20 -15 -40 -12 -28
-13 -46 -6 -72 6 -22 6 -46 0 -67 -6 -17 -12 -43 -13 -55 -4 -30 -30 -57 -46
-47 -7 4 -10 20 -8 36 6 39 -14 32 -26 -8 -7 -26 -4 -37 17 -65 38 -51 49 -78
62 -147 12 -62 12 -65 -11 -88 -13 -13 -28 -23 -34 -23 -5 0 -29 -14 -52 -30
-22 -17 -47 -30 -55 -30 -26 0 -12 28 26 53 29 20 44 40 60 80 18 50 19 59 6
107 -16 62 -31 82 -45 60 -5 -8 -10 -22 -10 -31 0 -9 -24 -37 -53 -62 -42 -36
-58 -44 -80 -40 -18 4 -27 12 -27 24 0 32 18 67 39 74 10 3 22 12 24 19 8 21
-4 56 -18 56 -17 0 -52 -48 -61 -84 -9 -38 -74 -64 -74 -30 0 45 28 100 75
150 56 58 66 62 85 39 18 -22 28 -19 45 15 11 20 27 32 54 40 34 9 42 17 66
68 34 72 53 102 65 102 6 0 10 -2 10 -4z m74 -70 c25 -54 21 -107 -16 -168
-17 -29 -38 -63 -45 -75 -14 -24 -53 -32 -53 -12 0 34 27 98 54 127 29 31 31
38 30 103 -2 74 4 79 30 25z m426 10 c0 -34 -14 -40 -50 -21 -48 25 -40 34 38
44 6 0 12 -10 12 -23z m-1545 -41 c31 -30 31 -43 3 -47 -19 -2 -23 -8 -20 -36
2 -26 -3 -35 -22 -43 -28 -13 -76 -5 -76 13 0 6 8 17 18 24 16 13 16 15 -3 29
-19 15 -31 15 -66 1 -9 -4 -26 2 -40 14 l-24 20 24 20 c27 23 51 24 106 5 55
-20 68 -19 60 5 -9 28 11 25 40 -5z m621 -23 c-24 -46 -73 -82 -111 -82 -19 0
-56 -5 -84 -11 -52 -11 -98 1 -85 22 14 24 94 49 138 43 48 -7 86 8 126 51 29
31 38 19 16 -23z m764 -33 c21 -17 48 -50 58 -73 11 -22 31 -51 43 -63 37 -34
134 -89 218 -124 42 -17 84 -38 94 -47 16 -15 16 -16 0 -35 -10 -10 -47 -34
-83 -52 -36 -18 -82 -47 -104 -64 -34 -27 -46 -31 -101 -31 -84 0 -91 9 -65
91 11 35 20 69 20 75 0 7 -25 44 -55 82 -30 39 -59 82 -65 97 -10 27 -14 175
-4 175 3 0 23 -14 44 -31z m-1185 -18 c3 -6 -2 -14 -11 -19 -20 -11 -97 6 -88
19 7 12 91 12 99 0z m-243 -236 c4 -19 1 -25 -13 -25 -12 0 -19 7 -19 18 0 38
26 43 32 7z m263 -4 c22 -10 46 -25 54 -34 17 -21 13 -21 -32 -2 -58 24 -124
19 -192 -15 -76 -37 -123 -39 -160 -4 -32 29 -28 40 8 23 30 -13 98 -1 167 30
56 25 103 26 155 2z m705 -46 c0 -13 -37 -45 -52 -45 -15 0 -8 30 12 50 21 21
40 19 40 -5z m250 -93 c-76 -51 -120 -120 -120 -190 0 -28 -26 -91 -47 -114
-17 -19 -59 -24 -82 -9 -12 8 -9 11 12 16 26 7 38 25 17 25 -5 0 -10 5 -10 10
0 6 8 10 19 10 27 0 37 17 60 100 25 90 42 115 101 146 52 28 89 32 50 6z
m-403 -38 c-3 -20 0 -28 14 -31 31 -8 36 -53 9 -75 -28 -22 -44 -19 -48 10 -6
38 -48 18 -65 -31 -4 -11 -14 -17 -24 -15 -28 6 -18 42 29 108 32 45 48 60 66
60 21 0 24 -4 19 -26z m232 -39 c-1 -5 -23 -18 -48 -28 -26 -9 -66 -33 -89
-53 -39 -33 -41 -37 -27 -57 14 -22 14 -22 -63 -24 l-77 -1 40 14 c22 8 61 37
90 68 29 30 69 63 91 75 39 21 86 24 83 6z"/>
<path d="M1314 2809 c-3 -6 1 -18 10 -27 14 -15 19 -14 53 2 34 17 36 19 18
27 -30 11 -73 11 -81 -2z"/>
<path d="M1310 1505 c-7 -9 -11 -18 -8 -21 9 -9 59 16 53 26 -9 15 -31 12 -45
-5z"/>
<path d="M1359 3638 c-17 -42 -87 -118 -107 -118 -8 0 -24 7 -34 17 -17 15
-18 14 -18 -19 l0 -34 63 4 c34 2 79 10 100 18 20 8 47 14 60 14 18 1 16 3
-10 15 -29 13 -33 18 -33 55 0 46 5 48 38 18 26 -24 23 -13 -10 35 -25 35 -33
34 -49 -5z"/>
<path d="M1513 3548 c-40 -13 -42 -24 -5 -31 15 -3 36 -9 47 -13 18 -7 18 -6
6 9 -7 9 -11 24 -7 32 6 17 4 17 -41 3z"/>
<path d="M1580 3518 c0 -6 7 -20 17 -30 15 -17 14 -18 -31 -18 -26 0 -63 7
-83 15 -46 19 -66 19 -111 -2 -25 -12 -60 -18 -109 -17 -48 0 -73 -3 -73 -11
0 -14 47 -58 78 -75 13 -6 21 -14 19 -17 -8 -7 -69 26 -99 55 -27 24 -28 25
-28 5 0 -11 7 -26 15 -33 21 -18 19 -27 -9 -34 -13 -3 -27 -13 -30 -22 -11
-29 4 -33 29 -8 21 21 33 24 82 22 55 -1 83 -11 83 -28 0 -5 -13 -3 -29 3 -58
22 -146 -25 -161 -85 -4 -18 -11 -41 -15 -52 -14 -32 34 1 57 40 11 19 33 41
49 49 34 18 96 20 101 3 3 -8 13 -5 33 10 21 17 41 22 83 22 45 0 53 2 43 13
-7 7 -35 11 -69 11 l-56 -2 23 19 c26 21 72 24 136 8 70 -18 70 -7 0 31 l-65
35 -43 -23 -42 -23 26 26 c23 23 38 28 115 34 50 4 103 15 122 25 17 9 32 13
32 10 0 -4 9 1 20 11 28 26 25 41 -5 21 -33 -21 -61 -20 -85 4 -11 11 -20 15
-20 8z"/>
<path d="M1715 3470 c-4 -6 9 -10 31 -10 42 0 42 4 2 14 -15 3 -30 2 -33 -4z"/>
<path d="M1625 3438 c-22 -9 -51 -18 -65 -18 -41 -1 -4 -17 70 -30 36 -6 85
-22 109 -36 55 -30 63 -24 20 15 l-33 31 30 0 c17 0 43 -10 58 -21 32 -25 39
-21 31 14 -7 27 -45 68 -45 49 0 -17 -105 -16 -122 1 -11 11 -20 10 -53 -5z"/>
<path d="M1270 3085 c-13 -14 -20 -28 -17 -32 8 -7 57 35 57 49 0 15 -16 8
-40 -17z"/>
</g>
</svg>
