<?xml version="1.0" standalone="no"?>
<!DOCTYPE svg PUBLIC "-//W3C//DTD SVG 20010904//EN"
 "http://www.w3.org/TR/2001/REC-SVG-20010904/DTD/svg10.dtd">
<svg version="1.0" xmlns="http://www.w3.org/2000/svg"
 width="750.000000pt" height="658.000000pt" viewBox="0 0 750.000000 658.000000"
 preserveAspectRatio="xMidYMid meet">

<g transform="translate(0.000000,658.000000) scale(0.100000,-0.100000)"
fill="#000000" stroke="none">
<path d="M3452 6569 c-220 -32 -400 -194 -479 -434 -24 -72 -27 -95 -27 -230
-1 -138 1 -156 26 -223 36 -100 98 -207 192 -332 44 -58 108 -143 144 -190 82
-109 143 -222 183 -340 32 -93 33 -99 37 -313 6 -287 -9 -387 -74 -499 -41
-73 -44 -82 -44 -153 0 -87 23 -166 77 -265 33 -59 34 -63 10 -42 -42 40 -74
128 -101 282 -41 233 -63 287 -135 337 -32 22 -46 42 -67 98 -124 323 -152
384 -258 563 -235 395 -461 608 -714 673 -239 61 -443 -20 -597 -236 -138
-194 -208 -447 -207 -750 0 -289 59 -514 213 -824 200 -404 328 -534 619 -632
93 -31 180 -40 255 -27 l40 7 -35 -14 c-23 -9 -79 -14 -165 -14 -82 -1 -182
-9 -270 -23 -169 -27 -277 -27 -410 2 -65 14 -149 23 -240 26 -240 7 -375 40
-576 142 -118 60 -265 150 -257 158 3 2 43 -16 89 -40 192 -102 417 -190 564
-221 62 -13 106 -15 195 -10 106 6 126 4 251 -24 161 -36 182 -37 357 -11 74
11 148 20 165 20 29 0 27 3 -23 23 -30 13 -89 46 -130 74 -130 87 -174 105
-254 104 -39 -1 -107 -8 -151 -17 -366 -71 -926 110 -1197 387 -157 161 -228
386 -183 578 34 141 128 262 252 322 64 32 73 34 173 34 85 0 114 -4 151 -21
61 -29 116 -85 147 -153 47 -102 40 -197 -20 -273 -33 -43 -29 -47 18 -18 53
33 78 99 78 200 -1 53 -7 105 -18 138 -20 59 -72 118 -112 128 -20 5 -24 12
-22 31 2 18 -4 29 -24 41 -26 15 -28 15 -52 -7 -33 -31 -56 -22 -56 23 0 41
-4 44 -62 52 -41 6 -44 5 -55 -25 -6 -17 -16 -31 -22 -31 -10 0 -15 5 -49 47
-16 21 -21 21 -64 12 -48 -11 -48 -11 -46 -51 2 -58 -46 -80 -81 -37 -20 25
-41 21 -86 -16 -26 -22 -28 -27 -17 -45 21 -34 15 -39 -36 -33 -58 6 -81 -4
-118 -53 l-27 -35 27 -28 c24 -25 26 -32 16 -51 -10 -20 -18 -22 -55 -17 -42
6 -44 5 -61 -31 -9 -20 -18 -52 -18 -72 -1 -33 1 -35 32 -38 40 -4 49 -22 32
-62 -14 -34 -11 -33 -44 -21 -36 14 -51 -9 -51 -84 0 -35 3 -67 7 -71 4 -3 29
-7 55 -8 l48 -1 3 -40 c3 -38 1 -41 -30 -50 -30 -9 -33 -14 -36 -52 -2 -26 4
-59 16 -86 19 -42 20 -43 60 -39 37 4 43 1 54 -23 14 -32 2 -58 -31 -63 -18
-3 -21 -10 -21 -45 0 -50 31 -121 58 -136 16 -8 24 -5 46 19 32 36 36 37 70 5
33 -31 34 -62 1 -75 -21 -8 -24 -14 -19 -37 12 -51 47 -102 80 -118 48 -23 62
-19 84 25 27 53 58 50 90 -9 11 -22 10 -27 -14 -46 -14 -11 -26 -28 -26 -37 0
-36 73 -98 132 -112 22 -5 28 -2 37 24 8 24 16 30 39 30 17 0 40 -8 52 -18 21
-17 22 -21 9 -55 -16 -46 -3 -79 43 -107 51 -31 138 -24 138 10 0 31 11 50 30
50 27 0 42 -25 38 -67 -3 -36 0 -39 37 -57 21 -11 62 -22 91 -24 49 -4 52 -3
73 31 39 63 71 60 71 -8 0 -39 4 -45 35 -64 19 -11 65 -26 102 -32 65 -11 68
-11 83 11 43 62 56 70 123 70 71 0 85 -6 258 -111 70 -44 125 -69 165 -78 141
-31 344 -101 344 -118 0 -3 -14 -23 -31 -44 -48 -61 -132 -120 -305 -214 -87
-48 -182 -105 -211 -127 -103 -78 -227 -204 -335 -340 -126 -158 -178 -206
-385 -349 -196 -136 -300 -239 -381 -379 -33 -58 -81 -138 -106 -178 -43 -68
-47 -72 -68 -61 -20 11 -25 8 -50 -22 -26 -31 -49 -88 -63 -155 -5 -27 -1 -34
30 -58 19 -15 35 -33 35 -41 0 -8 -19 -24 -43 -36 -50 -26 -57 -34 -57 -75 0
-32 33 -148 49 -173 5 -7 27 -15 50 -16 23 -1 44 -5 48 -8 3 -3 -6 -20 -21
-37 -64 -76 2 -180 114 -180 30 0 47 6 65 25 14 13 25 29 25 36 0 6 9 0 20
-14 36 -46 106 -52 182 -17 18 9 30 25 38 56 7 25 17 47 22 50 5 4 25 -8 43
-26 30 -29 39 -32 71 -27 20 4 62 23 93 44 53 36 60 38 131 38 41 0 77 2 80 6
3 3 32 29 64 58 52 45 61 49 75 37 44 -40 105 -29 196 35 l56 39 29 -20 c44
-31 78 -25 168 31 73 44 89 50 137 50 65 0 101 25 130 88 14 33 23 41 44 41
14 0 54 13 88 29 35 17 65 26 68 20 8 -12 50 -11 97 3 35 10 41 10 49 -4 14
-25 70 -39 156 -39 105 1 211 -4 312 -13 76 -8 85 -7 113 14 28 20 33 21 121
10 124 -15 160 -25 195 -58 82 -77 57 -216 -48 -270 -52 -26 -87 -28 -136 -7
-31 13 -36 19 -32 40 6 30 -3 32 -25 7 -24 -26 -21 -59 8 -88 55 -54 146 -69
221 -35 75 34 144 142 144 225 0 129 -79 194 -343 286 -147 51 -733 288 -729
294 1 3 81 164 177 358 96 194 185 370 198 392 l24 39 17 -24 c24 -34 20 -56
-14 -76 -41 -24 -45 -44 -19 -95 42 -84 90 -117 120 -82 7 8 25 22 40 30 26
13 29 12 48 -12 28 -36 27 -41 -14 -65 -40 -24 -42 -38 -16 -94 38 -83 92
-108 141 -65 28 25 42 25 63 2 15 -17 15 -20 -13 -54 l-29 -35 34 -40 c19 -22
48 -46 65 -53 29 -12 33 -11 61 16 24 23 33 26 47 18 25 -16 27 -51 3 -64 -28
-15 -26 -30 9 -78 35 -48 51 -52 77 -18 15 18 23 22 36 15 11 -7 28 -4 54 9
98 50 250 91 396 107 l57 6 -17 30 c-10 17 -69 85 -132 152 -169 182 -221 267
-221 365 0 89 43 143 143 181 115 42 263 47 390 10 66 -18 32 -22 -83 -9 -61
6 -113 10 -115 8 -7 -8 17 -123 28 -130 21 -14 81 -28 119 -28 36 0 37 1 40
42 2 32 8 44 21 46 30 6 47 -17 47 -64 0 -38 4 -45 30 -59 16 -8 49 -15 74
-15 42 0 46 2 68 43 39 71 77 59 78 -26 0 -37 49 -67 111 -67 52 0 76 15 81
50 3 21 8 25 38 25 34 0 35 -1 38 -42 3 -36 7 -43 34 -52 34 -12 117 -15 142
-5 11 4 16 19 16 50 0 38 4 46 25 56 33 15 51 -1 68 -61 12 -40 19 -48 53 -60
49 -17 114 -2 151 35 24 24 25 35 9 75 -5 11 1 19 19 27 46 21 70 15 88 -23 9
-20 24 -38 33 -42 21 -8 47 25 37 47 -3 8 -7 31 -7 50 -1 32 3 37 48 60 47 24
50 28 53 70 3 25 6 47 9 49 11 11 14 -12 8 -59 -6 -44 -12 -55 -36 -69 -63
-35 -62 -32 -35 -92 l24 -55 -21 -36 -21 -37 23 -23 c27 -30 28 -44 3 -58 -43
-23 -34 -72 16 -91 17 -6 23 -16 23 -39 0 -42 35 -63 96 -58 41 3 51 0 75 -24
46 -47 133 -31 200 36 77 77 60 266 -28 302 -43 18 -96 13 -124 -12 -25 -22
-24 -38 0 -24 11 5 33 10 50 10 41 0 101 -59 101 -99 0 -52 -67 -111 -125
-111 -67 0 -154 77 -180 160 l-14 45 -1 -50 -2 -50 -13 30 c-31 66 -10 242 32
277 14 11 15 10 10 -7 -3 -11 -8 -40 -11 -65 l-6 -45 20 51 c26 66 113 162
180 198 152 83 324 74 417 -21 161 -166 54 -492 -271 -826 -47 -49 -86 -90
-86 -93 0 -2 6 -4 13 -4 6 0 36 -16 66 -35 63 -40 58 -42 142 58 27 32 49 54
49 50 0 -5 -22 -41 -50 -82 -50 -74 -58 -91 -41 -91 5 0 35 -20 67 -45 58 -46
83 -55 85 -32 3 24 -3 40 -23 67 -22 30 -18 64 8 74 21 8 34 -1 34 -25 0 -14
7 -19 25 -19 36 0 75 29 91 67 22 51 17 69 -21 92 -40 23 -44 40 -15 66 16 14
23 16 32 7 22 -22 52 -12 81 25 42 56 45 82 13 105 -31 23 -33 38 -7 69 17 21
21 22 44 10 31 -16 40 -11 61 33 27 56 22 83 -19 96 -50 16 -45 52 8 65 34 9
63 61 54 97 -4 14 -20 31 -42 41 -19 9 -35 21 -35 26 0 5 18 27 40 49 31 31
40 47 40 73 0 46 -12 61 -50 66 -43 4 -84 35 -100 74 -12 27 -11 36 1 58 23
41 34 33 67 -49 10 -25 11 -24 11 7 1 25 -10 44 -44 83 -25 28 -45 44 -45 37
0 -31 -24 -36 -70 -14 -32 16 -46 29 -48 46 -4 23 -2 24 48 17 33 -4 50 -3 46
3 -4 5 -28 13 -54 17 -26 3 -56 15 -67 25 -42 38 -90 49 -208 49 -101 0 -116
-2 -132 -20 -15 -16 -31 -20 -83 -20 -58 0 -67 -3 -90 -29 -15 -15 -35 -50
-44 -77 -13 -36 -33 -62 -73 -97 -30 -27 -55 -45 -55 -41 0 4 20 33 44 63 37
48 76 111 76 124 0 2 -51 -13 -113 -34 -151 -51 -289 -78 -424 -86 l-111 -6 5
-33 c7 -43 -13 -46 -22 -4 -4 20 -13 30 -25 30 -10 0 -26 3 -34 6 -14 5 -16 0
-10 -35 8 -51 -4 -52 -33 -2 l-22 38 -88 6 c-176 13 -409 67 -483 113 -18 11
-19 13 -5 9 11 -4 54 -18 95 -31 152 -50 286 -68 515 -68 158 -1 232 3 300 16
125 24 201 48 185 58 -16 10 -6 26 30 45 26 13 28 13 33 -6 5 -19 11 -20 49
-14 72 11 165 61 201 109 l32 43 56 -5 c56 -4 58 -4 103 39 26 23 56 56 68 71
19 27 19 30 3 54 -27 42 -17 68 30 74 50 7 119 52 146 97 26 42 21 73 -21 139
-35 56 -37 72 -10 124 27 54 25 77 -10 110 -16 15 -30 37 -30 48 0 11 17 55
38 98 31 66 37 75 40 52 2 -17 -7 -41 -27 -69 -17 -23 -31 -49 -31 -57 0 -8
14 -30 30 -49 34 -39 39 -85 16 -150 l-14 -40 57 -62 c61 -64 75 -70 119 -47
24 12 32 11 74 -9 27 -13 51 -19 54 -14 9 15 81 49 103 49 28 0 70 59 92 131
23 75 24 113 1 163 l-18 40 4 -70 c3 -60 1 -74 -20 -103 -41 -60 -71 -76 -146
-76 -52 0 -77 6 -112 25 -131 73 -148 247 -36 368 56 61 88 75 167 74 139 -1
234 -75 285 -222 15 -43 19 -81 18 -170 -1 -138 -22 -211 -90 -311 -72 -108
-154 -166 -393 -283 l-133 -65 38 -16 c22 -9 76 -32 122 -50 l82 -34 47 20
c25 11 48 18 50 16 2 -2 -16 -22 -40 -44 l-44 -40 39 -41 c27 -30 38 -50 38
-72 0 -28 3 -31 23 -24 12 3 30 13 39 21 16 14 15 17 -10 38 -22 19 -25 27
-16 41 21 35 41 40 67 16 36 -34 82 -29 123 12 42 42 44 77 8 103 -22 17 -25
23 -16 40 6 11 22 27 36 36 23 16 25 15 40 -8 12 -18 26 -25 47 -25 77 0 156
119 99 150 -25 13 -50 61 -50 94 0 14 11 38 24 53 l24 28 26 -24 c22 -21 28
-22 42 -10 38 32 55 110 31 143 -12 17 -25 21 -79 25 -14 1 -18 9 -17 34 1 48
14 82 29 79 68 -16 67 -16 80 24 14 40 15 92 4 126 -5 17 -12 19 -51 13 -76
-11 -99 36 -43 90 34 33 39 69 15 115 -19 36 -49 54 -80 46 -22 -6 -23 -3 -27
63 -2 50 -9 75 -22 90 -24 26 -58 27 -81 1 -27 -30 -39 -25 -55 27 -17 55 -51
80 -94 69 -18 -4 -31 -17 -38 -36 -12 -37 -30 -38 -104 -5 -32 14 -59 23 -61
21 -3 -2 -12 -19 -21 -38 -16 -32 -19 -33 -69 -31 l-52 2 -16 -49 c-9 -28 -21
-51 -26 -51 -25 -5 -31 -2 -42 21 -11 21 -18 24 -54 22 -34 -3 -42 0 -48 17
-9 30 2 41 41 41 31 0 34 3 34 28 -1 47 -75 182 -100 182 -5 0 -18 -16 -29
-36 -25 -41 -38 -40 -65 5 l-19 32 28 29 27 28 -29 31 c-15 17 -45 38 -66 46
-40 16 -42 15 -49 -29 -4 -27 -21 -30 -48 -8 -20 16 -22 23 -13 49 11 30 11
30 -62 66 l-73 36 -8 -31 c-5 -17 -18 -37 -30 -44 -17 -12 -23 -12 -40 0 -16
13 -17 18 -6 35 6 12 12 25 12 30 0 15 -70 33 -110 29 -33 -3 -35 -6 -40 -43
-7 -50 -16 -65 -40 -65 -12 0 -21 10 -25 30 -8 36 -33 39 -83 12 -46 -24 -71
-66 -54 -90 24 -34 25 -44 6 -55 -114 -63 -120 -220 -12 -342 63 -73 167 -97
236 -55 40 25 41 34 2 25 -42 -9 -114 25 -140 67 -39 64 -19 176 39 217 46 33
138 54 210 48 37 -3 78 -10 93 -16 43 -16 204 -206 247 -291 103 -205 69 -415
-92 -574 -185 -184 -488 -287 -852 -291 -88 0 -273 -9 -411 -20 -287 -21 -288
-21 -404 57 -55 37 -296 295 -285 306 9 10 72 -46 151 -137 96 -108 153 -159
140 -126 -17 46 -18 78 -1 120 26 71 103 114 253 144 101 21 97 10 -8 -20
-162 -46 -230 -95 -230 -166 0 -40 31 -107 38 -83 7 22 33 50 48 50 7 0 14
-14 16 -32 2 -21 9 -34 19 -36 23 -4 160 50 167 66 2 7 -1 25 -9 38 -17 33 -1
59 37 59 24 0 30 -5 34 -30 4 -24 11 -31 35 -33 50 -6 104 16 125 50 17 29 17
33 2 65 -14 30 -14 35 -2 43 26 16 36 11 49 -25 10 -27 18 -35 37 -35 31 0 61
15 97 48 32 31 34 52 7 77 -25 23 -26 47 -2 68 24 22 39 21 47 -2 3 -10 14
-26 25 -36 18 -16 20 -15 63 25 25 22 50 54 56 71 9 26 7 31 -17 46 -15 9 -29
18 -31 19 -1 2 8 18 22 36 47 63 59 98 55 155 -6 69 -44 124 -118 169 -65 40
-174 70 -405 114 -222 42 -316 72 -364 116 -77 69 -115 215 -100 379 19 198
105 304 246 305 44 0 58 -5 86 -30 19 -16 42 -51 52 -77 10 -26 20 -43 22 -37
4 12 -61 211 -72 222 -3 3 -14 1 -24 -5 -16 -10 -23 -7 -45 18 -21 24 -34 30
-59 27 -30 -3 -32 -6 -35 -45 -3 -45 -25 -60 -35 -23 -6 22 -39 27 -54 8 -6
-7 -13 -35 -16 -61 -2 -26 -7 -51 -11 -54 -3 -3 -20 0 -37 7 -45 19 -58 -2
-52 -80 l5 -59 -38 -3 c-35 -3 -39 -6 -48 -42 -7 -34 -6 -41 10 -52 54 -38 57
-50 12 -62 -29 -7 -35 -15 -52 -65 -10 -32 -16 -61 -12 -64 3 -3 23 -9 43 -12
63 -10 57 -35 -25 -98 l-23 -18 19 -45 c11 -25 29 -54 41 -64 21 -19 22 -19
49 7 37 35 50 34 67 -5 16 -39 13 -46 -31 -64 -47 -20 -47 -63 0 -110 40 -40
62 -43 78 -9 8 18 19 25 39 25 61 0 76 -26 38 -66 -20 -21 -20 -26 -9 -55 17
-39 64 -69 110 -69 46 0 54 6 75 63 10 26 20 47 24 47 15 0 91 -34 91 -41 0
-4 -11 -21 -25 -37 -14 -17 -25 -34 -25 -39 0 -21 81 -54 137 -56 l58 -2 3 43
c4 56 22 62 73 26 40 -27 42 -28 55 -9 18 24 18 47 -1 93 l-15 37 25 -28 c14
-15 25 -38 25 -50 -1 -35 -35 -99 -71 -134 -56 -52 -203 -139 -297 -174 -82
-31 -95 -33 -217 -34 l-130 0 -167 58 c-122 42 -187 59 -245 63 -43 4 -86 11
-96 16 -14 7 -20 3 -29 -19 -11 -26 -12 -23 -19 42 -3 39 -18 99 -33 134 -25
61 -25 63 -4 45 11 -10 31 -41 43 -67 l23 -48 34 34 c39 39 55 84 64 184 l7
71 -50 50 c-28 28 -82 67 -123 87 -40 20 -70 38 -68 41 7 6 75 -19 138 -51
l54 -27 19 23 c63 78 166 294 193 402 21 90 29 312 15 440 -29 266 -108 448
-291 672 -32 39 -134 150 -228 248 -284 295 -331 392 -334 677 -1 130 17 195
68 240 19 16 38 30 43 30 5 0 14 21 21 46 19 66 31 74 109 74 56 0 73 4 101
25 39 29 71 32 106 9 18 -13 36 -15 74 -10 81 11 105 -13 130 -129 7 -33 17
-68 22 -78 7 -14 4 -20 -21 -28 -28 -10 -31 -15 -31 -51 0 -21 -5 -48 -11 -60
-16 -29 -6 -32 38 -9 96 49 143 147 129 274 -15 150 -123 247 -308 277 -72 11
-98 11 -186 -1z m-393 -709 c7 -41 23 -105 36 -143 45 -131 95 -199 299 -406
105 -107 184 -190 176 -186 -19 11 -156 122 -238 193 -174 151 -271 335 -288
547 -8 98 0 96 15 -5z m60 -355 c17 -25 26 -45 20 -45 -18 0 -69 61 -69 82 0
26 13 16 49 -37z m-902 -97 c27 -25 34 -69 8 -48 -9 7 -25 26 -36 42 -25 34
-6 38 28 6z m-69 -10 c15 -15 16 -48 2 -48 -9 0 -30 40 -30 56 0 8 16 4 28 -8z
m-51 -20 c21 -24 37 -48 31 -48 -2 0 -19 16 -38 35 -19 19 -29 35 -24 35 6 0
20 -10 31 -22z m227 -10 c15 -20 13 -38 -3 -38 -7 0 -31 43 -31 55 0 13 21 2
34 -17z m-264 -80 c0 -22 -39 2 -55 33 -25 48 -16 54 20 13 19 -21 35 -42 35
-46z m-86 -40 c16 -10 0 -21 -21 -14 -20 6 -53 64 -53 93 0 9 14 -3 32 -28 17
-24 36 -47 42 -51z m-93 -41 c37 -32 40 -37 20 -37 -37 0 -62 19 -82 63 -24
54 -24 81 0 41 10 -16 38 -47 62 -67z m1440 32 c15 -29 6 -33 -24 -8 -33 25
-38 56 -7 39 11 -6 25 -20 31 -31z m-1541 -90 c22 -28 40 -55 40 -59 0 -16
-61 12 -74 34 -19 29 -29 76 -16 76 5 0 28 -23 50 -51z m1595 5 c24 -38 12
-40 -27 -5 -30 27 -31 30 -12 31 13 0 29 -11 39 -26z m-739 -79 c24 -50 34
-165 16 -165 -5 0 -14 30 -21 68 -7 37 -23 93 -36 125 -23 56 -23 58 -3 40 12
-10 31 -40 44 -68z m-87 41 c9 -11 9 -16 0 -21 -10 -7 -28 10 -29 28 0 12 17
8 29 -7z m-830 -78 c44 -48 50 -58 33 -58 -45 0 -63 19 -92 96 -14 35 -4 29
59 -38z m351 32 c20 -20 26 -40 13 -40 -5 1 -24 14 -43 30 -31 27 -32 30 -12
30 12 0 31 -9 42 -20z m644 -99 c1 -28 -5 -56 -11 -62 -11 -10 -13 2 -13 61 0
57 3 71 12 62 6 -6 12 -34 12 -61z m-782 27 c-6 -6 -15 -8 -19 -4 -4 4 -1 11
7 16 19 12 27 3 12 -12z m-213 -131 c5 -12 -48 0 -67 16 -15 12 -62 101 -62
117 0 11 122 -115 129 -133z m1074 31 c2 -54 -2 -71 -17 -85 -18 -18 -18 -16
-12 46 3 35 6 85 7 110 0 41 1 43 10 21 6 -14 11 -55 12 -92z m-912 12 l24
-19 -22 -1 c-12 0 -27 9 -33 20 -14 26 1 26 31 0z m127 -19 c25 -22 28 -31 9
-31 -8 0 -24 11 -37 25 -28 30 -7 34 28 6z m842 -111 c0 -38 -5 -81 -12 -95
-20 -44 -26 -8 -12 77 7 45 10 86 7 91 -3 6 -1 7 5 3 7 -4 12 -35 12 -76z
m-1243 39 c11 -19 36 -38 66 -51 26 -11 47 -25 47 -30 0 -18 -63 1 -90 27 -31
30 -65 85 -51 85 5 0 18 -14 28 -31z m256 -10 c46 -12 39 -29 -11 -29 -26 0
-41 6 -50 20 -10 17 -10 20 5 20 10 0 35 -5 56 -11z m1707 -44 c0 -8 -6 -15
-14 -15 -20 0 -29 17 -14 23 22 9 28 7 28 -8z m-1875 -163 c-9 -10 -75 21 -98
46 -21 22 -57 88 -57 106 0 2 36 -30 79 -72 44 -43 78 -79 76 -80z m1213 5
c-5 -26 -21 -60 -34 -75 -29 -33 -30 -23 -5 59 11 35 23 80 27 99 l7 35 8 -35
c4 -19 3 -57 -3 -83z m677 103 c-3 -5 -12 -10 -20 -10 -8 0 -17 5 -20 10 -4 6
5 10 20 10 15 0 24 -4 20 -10z m23 -48 c3 -9 -2 -13 -14 -10 -9 1 -19 9 -22
16 -3 9 2 13 14 10 9 -1 19 -9 22 -16z m-3017 -8 c19 -23 -12 -45 -48 -35 -35
9 -39 25 -11 39 32 15 44 14 59 -4z m1422 -3 c17 -17 -51 -14 -88 4 -30 15
-30 15 23 11 29 -2 58 -8 65 -15z m-1246 -8 c6 -18 -44 -28 -62 -13 -8 7 -15
17 -15 22 0 14 73 5 77 -9z m1036 -15 c32 -12 36 -28 6 -28 -27 0 -55 16 -63
36 -5 12 -2 15 11 9 10 -4 30 -12 46 -17z m2157 -78 c0 -37 -7 -91 -16 -121
-19 -65 -39 -91 -31 -39 3 19 9 86 13 149 6 100 9 112 20 96 9 -11 14 -45 14
-85z m-340 58 c0 -14 -48 -9 -53 6 -3 8 -3 16 0 19 7 8 53 -14 53 -25z m-654
-93 c-14 -48 -31 -74 -40 -64 -5 5 20 97 35 134 12 28 13 29 16 7 3 -12 -3
-47 -11 -77z m-2065 69 c11 -14 10 -15 -11 -12 -13 1 -25 9 -28 16 -5 17 23
15 39 -4z m752 -60 c38 -14 45 -19 32 -26 -8 -5 -29 -7 -45 -3 -33 7 -90 67
-90 93 0 13 7 9 28 -14 15 -18 49 -40 75 -50z m-1259 57 c10 -15 -4 -38 -30
-50 -32 -14 -34 -14 -34 6 0 34 50 68 64 44z m3226 -11 c12 -8 12 -10 -3 -16
-20 -7 -47 1 -47 16 0 12 30 13 50 0z m0 -55 l25 -15 -34 2 c-19 2 -36 9 -39
16 -5 16 17 15 48 -3z m-1738 -30 c29 -14 61 -25 71 -25 9 0 17 -4 17 -10 0
-27 -124 16 -146 51 -8 13 -1 12 58 -16z m1148 -27 c-1 -24 -7 -56 -14 -73
-11 -25 -15 -27 -21 -13 -4 10 -2 32 4 49 6 18 11 43 11 55 0 13 5 24 10 24 6
0 10 -19 10 -42z m-2686 0 c-74 -80 -134 -175 -171 -272 -20 -54 -22 -57 -17
-21 10 69 78 194 143 263 33 34 63 62 67 62 4 0 -6 -15 -22 -32z m3278 2 l33
-20 -31 0 c-31 0 -60 21 -47 33 9 9 8 10 45 -13z m-3392 -23 c0 -28 -17 -47
-42 -47 -22 0 -23 18 -2 48 20 29 44 28 44 -1z m1445 -98 c40 -23 45 -29 27
-29 -40 0 -91 30 -132 79 -54 62 -50 72 8 21 26 -23 70 -55 97 -71z m1957 59
c34 -16 36 -28 4 -28 -25 0 -56 23 -56 42 0 10 5 9 52 -14z m-552 -17 c0 -30
-33 -81 -45 -69 -8 8 26 98 38 98 4 0 7 -13 7 -29z m911 -62 c-12 -59 -39
-134 -46 -128 -2 2 3 27 10 55 7 29 17 78 20 109 6 45 10 54 17 40 7 -11 6
-37 -1 -76z m-2041 24 c22 -5 23 -6 6 -12 -23 -9 -127 6 -141 20 -10 10 79 5
135 -8z m1710 -35 c0 -14 -33 -8 -52 9 -33 29 -21 44 17 20 19 -12 34 -25 35
-29z m-550 -44 c-30 -35 -41 -4 -12 36 l17 25 3 -23 c2 -13 -2 -30 -8 -38z
m-3002 0 c4 -36 -19 -70 -42 -61 -20 8 -21 46 0 75 20 29 38 23 42 -14z m1468
-29 c25 -19 73 -43 105 -53 67 -19 76 -32 24 -32 -64 0 -125 34 -167 93 -26
36 -18 34 38 -8z m2059 5 c22 -23 25 -30 12 -30 -18 0 -57 34 -57 50 0 18 16
11 45 -20z m-20 -60 c16 -16 25 -33 22 -37 -10 -9 -61 30 -65 51 -5 24 11 19
43 -14z m360 -65 c-10 -25 -20 -43 -23 -40 -3 2 3 25 13 50 9 26 19 44 22 41
3 -3 -3 -25 -12 -51z m-2011 39 c25 -4 46 -11 46 -15 0 -14 -54 -10 -91 6 -38
16 -25 18 45 9z m1635 -59 c34 -50 25 -70 -14 -31 -21 21 -36 76 -21 76 3 0
18 -20 35 -45z m-1983 -26 c25 -17 66 -38 92 -47 46 -17 47 -17 15 -20 -38 -4
-74 14 -128 62 -49 44 -39 46 21 5z m214 21 c0 -5 -13 -10 -29 -10 -17 0 -33
5 -36 10 -4 6 8 10 29 10 20 0 36 -4 36 -10z m1407 -83 c-6 -67 -42 -177 -58
-177 -14 0 -12 12 21 110 17 50 30 99 30 110 0 11 3 20 6 20 4 0 4 -28 1 -63z
m-3159 37 c16 -29 -6 -84 -34 -84 -19 0 -29 47 -15 76 12 28 36 31 49 8z
m3496 -39 c16 -25 33 -45 37 -45 5 0 9 -4 9 -10 0 -16 -43 5 -61 31 -21 29
-33 69 -22 69 5 0 22 -20 37 -45z m-1555 -1 c2 -2 1 -7 -3 -11 -13 -13 -81 -6
-112 11 -29 17 -28 17 41 10 39 -3 72 -8 74 -10z m1271 -148 c-29 -77 -37 -65
-11 18 11 36 18 75 16 87 -3 12 -1 27 3 33 18 28 11 -85 -8 -138z m320 -54
c-18 -7 -70 29 -85 58 -8 16 -15 43 -15 61 0 30 2 28 54 -42 30 -41 50 -75 46
-77z m-1561 118 c2 0 -2 -7 -9 -15 -7 -8 -26 -15 -42 -15 -36 0 -117 20 -123
30 -4 6 86 6 174 0z m-212 -77 c68 -7 56 -27 -17 -26 -34 0 -63 9 -93 26 -72
43 -75 58 -6 30 33 -13 86 -27 116 -30z m1654 5 c31 -60 60 -98 89 -114 17 -9
20 -13 9 -14 -46 -1 -129 97 -129 152 0 28 8 22 31 -24z m-151 -117 c-11 -23
-25 -41 -30 -41 -14 0 -12 15 9 68 11 26 23 56 27 67 7 16 9 13 12 -17 2 -23
-4 -51 -18 -77z m-3205 39 c20 -40 11 -80 -19 -80 -36 0 -61 71 -34 98 20 20
37 14 53 -18z m1964 9 c48 2 53 0 41 -13 -16 -20 -70 -20 -115 -2 -42 18 -46
31 -7 21 15 -4 51 -7 81 -6z m1791 -28 c0 -5 -23 -34 -51 -63 -53 -56 -50 -34
4 35 30 36 47 47 47 28z m-1992 -34 c27 1 31 -1 21 -13 -17 -21 -97 -17 -139
7 l-35 19 60 -7 c33 -3 75 -6 93 -6z m1472 -11 c0 -35 -17 -76 -35 -82 -26
-11 -27 2 -4 55 23 55 39 66 39 27z m2424 -74 c202 -95 370 -349 365 -555 l-1
-52 -9 60 c-23 158 -79 272 -192 391 -105 112 -186 154 -293 154 -144 0 -267
-78 -291 -185 l-12 -50 4 44 c8 98 82 180 194 216 66 21 159 12 235 -23z
m-3636 22 c29 -8 28 -22 -3 -30 -27 -7 -85 12 -85 27 0 10 54 12 88 3z m1232
-53 c-6 -12 -18 -21 -26 -21 -15 0 -15 1 16 48 18 28 27 4 10 -27z m-1312 13
c43 -13 52 -18 39 -26 -12 -6 -31 -3 -62 11 -25 11 -45 22 -45 25 0 9 6 8 68
-10z m-118 -14 c22 -6 23 -8 7 -15 -20 -8 -95 1 -117 15 -18 12 72 12 110 0z
m1474 -28 c-4 -12 -13 -22 -20 -22 -17 0 -18 14 -2 40 15 24 29 13 22 -18z
m-3235 -60 c6 -15 13 -41 14 -57 2 -25 -1 -29 -18 -27 -29 5 -45 31 -45 74 0
31 4 38 19 38 11 0 23 -11 30 -28z m1991 14 c0 -16 -24 -27 -45 -21 -51 16
-50 16 -35 25 24 15 80 12 80 -4z m-175 -36 c-3 -5 -27 -10 -53 -9 -35 0 -42
3 -27 9 28 12 88 12 80 0z m1643 -2 c14 -14 16 -96 3 -116 -5 -9 -10 6 -14 40
-3 29 -8 61 -12 71 -8 20 5 23 23 5z m68 -82 c-12 -74 -25 -76 -26 -2 0 62 2
67 16 55 12 -10 14 -23 10 -53z m-1681 -5 c-11 -11 -46 -15 -85 -12 -23 2 -24
3 -5 11 28 12 102 13 90 1z m1719 -17 c6 -16 -9 -54 -22 -54 -5 0 -6 16 -4 35
4 37 16 46 26 19z m-1394 -34 c0 -5 -23 -10 -51 -10 -31 0 -48 4 -44 10 3 6
26 10 51 10 24 0 44 -4 44 -10z m230 -10 c0 -13 -28 -27 -73 -35 -51 -10 -48
9 6 28 51 18 67 20 67 7z m414 -8 c2 -4 -22 -17 -55 -28 -66 -23 -84 -17 -43
15 26 21 88 29 98 13z m786 -16 c0 -8 -7 -19 -15 -26 -13 -10 -15 -9 -15 12 0
14 3 28 6 31 9 9 24 -2 24 -17z m-1720 -1 c0 -11 -11 -15 -39 -15 -49 0 -63
17 -19 23 18 2 39 5 46 5 6 1 12 -5 12 -13z m2748 1 c27 -14 71 -56 59 -56 -4
0 -36 16 -73 35 -52 28 -60 35 -39 35 14 0 38 -6 53 -14z m-4447 -35 c32 -32
38 -65 13 -75 -20 -8 -74 45 -74 72 0 41 22 42 61 3z m1807 -42 c32 -12 28
-29 -5 -19 -47 14 -83 29 -83 36 0 6 52 -4 88 -17z m2883 -11 c30 -56 -6 -181
-70 -246 -48 -48 -58 -39 -17 17 68 92 89 165 66 225 -12 32 4 35 21 4z
m-1663 -7 c71 -36 111 -101 119 -190 4 -44 0 -73 -22 -136 -36 -105 -47 -122
-41 -65 16 140 16 227 2 275 -15 49 -55 98 -101 123 -35 20 4 13 43 -7z m-784
-22 c-21 -23 -73 -53 -80 -46 -8 7 69 67 85 67 11 0 10 -5 -5 -21z m697 -36
c12 -33 4 -73 -16 -73 -11 0 -15 13 -15 50 0 55 15 66 31 23z m-2051 -3 c30
-5 87 -12 125 -16 61 -6 66 -8 40 -16 -16 -4 -59 -6 -95 -2 -73 7 -240 40
-249 50 -7 7 91 -2 179 -16z m562 -7 c10 -9 18 -25 18 -35 0 -19 -1 -19 -27 1
-16 11 -39 30 -53 42 l-25 21 34 -6 c19 -4 43 -14 53 -23z m-61 -25 c6 -11 8
-22 5 -25 -7 -7 -76 45 -76 57 0 16 60 -11 71 -32z m138 16 c17 -14 31 -32 31
-41 0 -15 -13 -7 -80 46 -24 20 -25 21 -3 21 12 0 35 -12 52 -26z m491 17 c0
-24 -120 -40 -177 -25 -34 9 -28 20 10 16 17 -1 57 1 87 6 75 13 80 13 80 3z
m1000 -43 c0 -25 -35 -76 -45 -66 -2 2 2 22 10 43 8 22 14 49 15 60 1 32 20
-4 20 -37z m-1699 -1 c-7 -7 -16 -5 -31 8 -30 27 -24 38 11 19 23 -11 28 -19
20 -27z m-65 16 c11 -12 13 -18 5 -21 -13 -4 -41 16 -41 29 0 14 17 10 36 -8z
m1158 7 c24 -9 25 -11 11 -37 -8 -15 -15 -49 -15 -74 0 -43 3 -49 45 -83 25
-21 45 -42 45 -47 0 -16 -47 -10 -61 8 -12 14 -15 7 -20 -55 -4 -51 -11 -77
-25 -93 -10 -11 -75 -48 -143 -80 -67 -33 -138 -71 -156 -85 -19 -14 -36 -21
-39 -15 -3 5 11 18 31 28 59 29 50 38 -36 39 -68 0 -87 5 -152 36 -41 20 -83
43 -94 53 -24 19 -17 17 55 -18 85 -41 175 -60 245 -53 128 13 263 90 281 160
4 16 -1 66 -11 117 -14 72 -15 95 -5 124 15 44 9 51 -32 39 -24 -7 -49 -30
-90 -84 -61 -80 -66 -95 -43 -126 8 -10 15 -27 15 -38 0 -12 5 -16 16 -12 36
14 94 18 94 7 0 -6 -17 -11 -40 -11 -36 0 -41 -3 -60 -40 -12 -23 -31 -45 -43
-49 -33 -12 -74 6 -97 44 -32 52 -26 80 26 128 26 23 73 76 104 118 75 98 127
125 194 99z m340 1 c23 -9 14 -16 -34 -26 -49 -10 -112 -48 -149 -90 -34 -39
-42 -26 -16 25 35 68 138 115 199 91z m-2530 -32 c23 -11 40 -42 28 -53 -14
-15 -53 -4 -71 20 -32 40 -10 57 43 33z m2260 -91 c18 -35 13 -47 -12 -32 -9
6 -18 26 -20 44 -4 38 10 33 32 -12z m586 28 c0 -22 -40 -66 -61 -66 -18 0
-16 5 13 40 35 42 48 49 48 26z m-220 -56 c27 -27 40 -63 40 -111 0 -56 -51
-111 -102 -111 -44 0 -71 14 -96 49 -30 43 -41 94 -28 127 24 59 144 88 186
46z m1613 -40 c-7 -27 -23 -15 -23 17 0 21 3 23 14 14 8 -7 12 -21 9 -31z
m-1383 15 c0 -21 -48 -51 -61 -38 -7 7 0 17 23 31 18 11 34 21 36 21 1 1 2 -6
2 -14z m-2562 -21 c12 -8 22 -24 22 -36 0 -18 -4 -20 -41 -15 -24 3 -51 15
-63 27 -21 21 -21 21 -2 36 21 15 46 11 84 -12z m3900 -7 c2 -15 -1 -27 -7
-27 -6 0 -11 6 -11 14 0 8 -3 22 -7 32 -4 12 -2 15 8 12 8 -2 15 -17 17 -31z
m-914 1 c9 -12 16 -36 16 -53 -1 -30 -1 -29 -25 15 -13 25 -24 48 -25 53 0 15
19 6 34 -15z m86 -46 c0 -33 -16 -18 -26 23 -7 27 -6 29 9 16 10 -7 17 -25 17
-39z m775 -9 c-7 -17 -8 -16 -17 4 -6 12 -7 30 -3 40 7 17 8 16 17 -4 6 -12 7
-30 3 -40z m-2395 30 c-53 -19 -302 -24 -365 -8 -35 9 -26 11 80 15 66 4 167
6 225 7 l105 1 -45 -15z m1690 -44 c0 -16 -4 -29 -9 -29 -9 0 -21 34 -21 64 0
15 3 16 15 6 8 -7 15 -25 15 -41z m658 10 c-1 -13 -7 -23 -13 -22 -13 3 -18
30 -11 50 10 24 29 1 24 -28z m-3530 5 c28 -19 28 -30 -1 -49 -26 -17 -86 -6
-107 20 -32 38 60 63 108 29z m2270 4 c-3 -7 -13 -13 -23 -13 -10 0 -20 6 -22
13 -3 7 5 12 22 12 17 0 25 -5 23 -12z m351 -28 c12 -22 20 -40 18 -40 -2 0
-16 18 -31 40 -14 22 -23 40 -18 40 5 0 18 -18 31 -40z m307 16 c3 -14 1 -32
-4 -42 -9 -16 -11 -15 -21 5 -13 23 -6 61 9 61 6 0 12 -11 16 -24z m554 -6 c0
-19 -17 -36 -27 -26 -3 3 -2 17 1 31 7 28 26 25 26 -5z m-500 -22 c0 -24 -16
-56 -23 -48 -3 3 -2 20 0 38 6 36 23 44 23 10z m-443 -35 c-7 -53 -26 -127
-32 -121 -2 2 0 21 5 43 5 22 10 59 10 83 0 24 5 42 11 42 8 0 10 -15 6 -47z
m553 6 c0 -10 -4 -20 -9 -23 -10 -7 -21 17 -21 46 0 17 3 18 15 8 8 -7 15 -21
15 -31z m241 21 c-21 -19 -41 -26 -41 -16 0 12 33 36 48 36 14 -1 12 -5 -7
-20z m-293 -11 c1 -8 -4 -23 -12 -34 -15 -19 -15 -18 -16 18 0 27 4 37 13 35
6 -3 13 -11 15 -19z m-2753 -13 c29 -13 35 -20 35 -45 0 -27 -3 -31 -28 -31
-36 0 -132 28 -132 38 0 13 24 39 40 45 26 9 50 7 85 -7z m1444 -4 c42 -19 44
-32 6 -32 -12 0 -32 11 -45 25 -28 30 -17 32 39 7z m1411 -7 c0 -14 -4 -25
-10 -25 -5 0 -10 11 -10 25 0 14 5 25 10 25 6 0 10 -11 10 -25z m-1945 5 c-3
-5 -38 -10 -76 -10 -44 0 -68 4 -64 10 3 6 38 10 76 10 44 0 68 -4 64 -10z
m555 -114 c-23 -10 -83 21 -88 47 -3 15 5 13 52 -10 48 -24 53 -29 36 -37z
m846 39 c8 -32 -2 -86 -20 -111 -22 -29 -24 -16 -13 64 11 74 22 90 33 47z
m-454 -43 c-24 -47 -100 -102 -150 -109 -28 -4 -43 0 -62 16 l-25 20 37 -6
c51 -8 118 27 171 88 46 54 60 50 29 -9z m-612 -25 c0 -7 -14 -32 -31 -55 -17
-23 -39 -59 -49 -80 l-19 -37 -1 32 c0 45 16 83 53 121 33 34 47 40 47 19z
m1276 -41 c-7 -35 -21 -54 -29 -39 -2 5 0 28 5 52 12 54 34 42 24 -13z m-1010
9 c-11 -8 -40 -15 -65 -15 -57 0 -43 17 19 23 25 2 50 4 55 5 6 1 1 -5 -9 -13z
m824 -29 c0 -8 -7 -19 -15 -26 -16 -13 -18 -8 -9 27 6 23 24 22 24 -1z m-1227
-33 c-8 -27 -20 -72 -27 -101 -12 -56 -26 -60 -26 -8 0 60 38 156 61 156 4 0
1 -21 -8 -47z m1475 25 c2 -9 -4 -31 -12 -49 l-14 -34 -1 53 c-1 39 2 53 12
50 6 -3 13 -12 15 -20z m-1060 -10 c-5 -15 -78 -24 -78 -9 0 10 22 18 58 20
15 1 22 -4 20 -11z m714 -86 c16 -35 22 -89 33 -275 8 -128 17 -243 20 -257 6
-23 5 -23 -6 -6 -26 42 -40 128 -45 296 -5 178 -20 266 -49 290 -8 7 -15 17
-15 23 0 20 43 -29 62 -71z m396 65 c8 -9 5 -24 -8 -52 l-18 -40 -1 53 c-1 52
7 63 27 39z m1882 -7 c-29 -54 -196 -155 -330 -198 -62 -21 -396 -103 -620
-153 -139 -32 -416 -34 -520 -5 -73 20 -190 68 -190 77 0 4 37 -6 83 -22 171
-59 367 -74 576 -44 96 14 269 58 596 152 144 41 303 116 365 172 52 47 54 48
40 21z m1003 -12 c-9 -49 -27 -90 -61 -137 -39 -54 -112 -134 -118 -128 -2 2
30 53 71 113 42 60 81 126 87 147 14 46 30 49 21 5z m-3973 -23 c-7 -8 -22
-15 -34 -15 -21 1 -21 1 -2 15 27 21 53 20 36 0z m-525 -97 c-19 -93 -24 -106
-36 -87 -21 33 -4 136 28 171 25 28 27 9 8 -84z m811 -104 c12 -65 -43 -213
-106 -284 -35 -39 -35 -37 3 42 34 69 56 172 57 258 l1 65 19 -23 c11 -13 22
-39 26 -58z m584 18 c0 -55 -17 -122 -30 -122 -9 0 -4 136 6 168 8 28 24 -1
24 -46z m-210 -47 c0 -43 -7 -74 -24 -110 -24 -49 -62 -105 -52 -75 29 88 46
156 51 209 9 78 25 63 25 -24z m-1280 68 c0 -5 -7 -30 -16 -58 -9 -27 -19 -56
-21 -64 -6 -24 -14 -5 -15 38 0 40 23 91 42 91 6 0 10 -3 10 -7z m805 -59
c-18 -27 -95 -87 -103 -79 -3 3 21 33 54 67 56 60 85 67 49 12z m768 17 c5
-19 -26 -101 -38 -101 -4 0 -4 14 -1 30 3 17 9 44 12 60 6 34 19 39 27 11z
m-1680 -72 c-10 -21 -21 -39 -25 -39 -16 0 -7 46 14 80 18 29 23 32 26 16 2
-10 -4 -36 -15 -57z m2339 59 c16 -14 32 -48 21 -48 -10 0 -53 42 -53 52 0 12
14 10 32 -4z m86 -26 c5 -30 -12 -28 -27 4 -10 22 -9 25 6 22 10 -2 19 -13 21
-26z m96 5 c15 -24 -3 -35 -20 -13 -8 11 -14 24 -14 29 0 13 22 3 34 -16z
m-2564 -19 c0 -19 -25 -86 -35 -95 -8 -9 1 82 11 98 8 13 24 11 24 -3z m1765
-63 c-31 -55 -50 -59 -28 -7 8 20 20 48 25 62 9 23 10 23 19 7 8 -13 4 -28
-16 -62z m-1382 -11 c-14 -32 -44 -108 -65 -169 -39 -108 -40 -109 -35 -54 3
31 16 84 30 118 25 61 88 173 94 167 2 -2 -9 -29 -24 -62z m564 23 c-8 -12
-34 -33 -58 -46 l-44 -23 55 53 c54 53 76 60 47 16z m-1007 14 c0 -5 -11 -33
-24 -62 -24 -53 -25 -53 -25 -21 -1 19 7 47 16 63 17 28 33 38 33 20z m1876
-42 c-13 -29 -15 -30 -16 -11 0 27 22 72 27 56 2 -6 -3 -26 -11 -45z m-1970
-57 c-14 -34 -26 -72 -26 -84 -1 -21 -1 -22 -11 -4 -16 26 -5 92 23 131 35 51
43 26 14 -43z m2047 64 c3 -7 -4 -26 -15 -42 l-19 -29 6 35 c11 51 18 62 28
36z m-443 -44 c0 -42 -47 -132 -82 -156 -30 -21 -36 -11 -10 17 26 27 58 99
67 149 9 47 25 40 25 -10z m-1001 -41 c-33 -74 -58 -98 -35 -33 16 44 57 115
63 109 2 -3 -10 -37 -28 -76z m3474 47 c22 -11 22 -25 -2 -38 -30 -15 -66 -12
-91 8 l-23 19 23 16 c24 16 55 15 93 -5z m166 -7 c27 -21 21 -41 -12 -41 -28
0 -67 26 -67 46 0 20 50 17 79 -5z m-4309 3 c0 -3 -15 -42 -32 -87 -30 -75
-33 -79 -36 -49 -4 35 41 142 59 142 5 0 9 -2 9 -6z m2165 -34 c-27 -30 -38
-24 -19 11 11 23 19 28 27 20 7 -7 5 -16 -8 -31z m-1017 14 c-4 -20 -44 -50
-78 -59 -21 -5 -19 0 19 35 47 43 64 50 59 24z m1079 -51 c-21 -22 -32 -11
-17 17 9 16 15 19 23 11 8 -8 7 -16 -6 -28z m1729 26 c10 -16 -14 -53 -46 -72
-38 -23 -95 -23 -86 -1 3 9 6 19 6 23 0 5 12 20 26 35 28 27 86 36 100 15z
m-4075 -114 c-19 -57 -27 -54 -22 10 2 16 10 43 19 60 14 26 17 27 19 10 2
-11 -6 -47 -16 -80z m2403 76 c7 -10 -22 -37 -30 -28 -9 8 3 37 15 37 5 0 12
-4 15 -9z m1985 -37 c57 -16 120 -67 156 -124 67 -106 100 -287 76 -412 -15
-76 -69 -218 -82 -218 -6 0 -8 8 -5 18 67 211 73 415 16 547 -24 56 -83 120
-134 148 -35 19 -57 22 -148 22 -58 0 -104 2 -102 4 6 7 115 29 145 30 14 1
49 -6 78 -15z m-4429 -10 c0 -4 -10 -34 -22 -68 l-23 -61 -3 37 c-3 37 20 98
38 98 6 0 10 -3 10 -6z m2631 -21 c18 -47 6 -61 -19 -22 -26 43 -27 49 -7 49
9 0 20 -12 26 -27z m-812 -35 c-9 -35 -25 -55 -51 -69 -16 -9 -15 -4 6 38 14
26 28 57 31 68 5 15 8 16 14 6 5 -8 5 -27 0 -43z m-1902 -10 c-3 -18 -14 -53
-25 -78 l-21 -45 0 43 c-1 46 24 112 41 112 6 0 8 -14 5 -32z m3021 -29 l4
-34 -30 40 c-32 44 -32 64 1 42 14 -9 23 -27 25 -48z m855 30 c7 -25 -9 -25
-23 0 -13 26 -13 31 4 25 8 -3 16 -14 19 -25z m-3273 -7 c0 -31 -43 -105 -80
-137 -18 -16 -15 -5 19 60 22 43 41 85 41 92 0 7 5 13 10 13 6 0 10 -13 10
-28z m2306 14 c13 -34 -1 -42 -24 -14 -23 28 -23 28 -2 28 11 0 23 -6 26 -14z
m724 -35 c-1 -25 -1 -25 -15 -7 -19 26 -19 47 0 40 8 -4 15 -18 15 -33z m-450
19 c10 0 21 -41 14 -52 -5 -8 -54 43 -54 57 0 4 7 4 16 1 9 -3 19 -6 24 -6z
m376 -15 c4 -14 4 -29 0 -32 -7 -8 -35 27 -36 45 0 23 30 12 36 -13z m142 -6
c2 -23 2 -23 -13 -5 -18 24 -20 39 -2 34 6 -3 13 -15 15 -29z m50 0 c2 -23 2
-23 -13 -5 -18 24 -20 39 -2 34 6 -3 13 -15 15 -29z m70 0 c2 -23 2 -23 -13
-5 -18 24 -20 39 -2 34 6 -3 13 -15 15 -29z m222 16 c0 -16 -31 -63 -45 -69
-50 -19 -59 4 -18 46 23 24 63 39 63 23z m-2110 -29 c0 -22 -47 -92 -56 -83
-6 6 39 107 48 107 4 0 8 -11 8 -24z m1164 8 c15 -39 -4 -42 -24 -3 -8 15 -7
19 4 19 7 0 17 -7 20 -16z m384 -15 c2 -23 2 -23 -13 -5 -18 24 -20 39 -2 34
6 -3 13 -15 15 -29z m-3572 -108 c-15 -33 -26 -68 -27 -78 0 -15 -2 -15 -10 3
-13 26 2 84 33 134 32 52 35 16 4 -59z m570 33 c-7 -36 -54 -97 -89 -115 -15
-9 -12 -1 13 35 17 26 41 68 52 94 23 50 34 43 24 -14z m944 -66 c0 -26 -15
-22 -44 13 -25 29 -35 86 -19 103 9 8 62 -91 63 -116z m-261 26 c-20 -42 -118
-134 -143 -134 -5 0 23 33 61 73 38 40 75 88 83 107 11 25 16 30 18 17 2 -9
-6 -38 -19 -63z m787 28 c-18 -16 -18 -16 -6 6 6 13 14 21 18 18 3 -4 -2 -14
-12 -24z m1844 -1 c-8 -5 -65 -19 -125 -31 -123 -25 -481 -40 -545 -23 -29 8
-9 12 120 22 518 43 576 47 550 32z m-3950 -5 c0 -3 -12 -38 -27 -78 -26 -68
-28 -71 -31 -39 -5 46 26 121 49 121 5 0 9 -2 9 -4z m1533 -86 c14 -23 15 -29
3 -33 -33 -13 -93 65 -80 105 6 20 8 19 33 -12 14 -18 34 -46 44 -60z m-750
43 c-2 -18 -43 -110 -91 -205 -124 -243 -168 -392 -180 -607 l-7 -114 -95 -32
c-52 -18 -138 -54 -190 -80 -101 -51 -112 -53 -255 -45 -67 4 -74 2 -140 -35
-168 -94 -175 -97 -343 -118 -173 -22 -232 -19 -283 16 -58 40 -74 71 -73 146
0 56 6 80 37 145 42 88 117 200 179 266 79 84 82 76 9 -17 -125 -158 -201
-315 -201 -413 0 -83 101 -149 202 -133 l37 5 -6 47 c-4 37 0 57 17 92 76 151
211 282 460 449 102 68 304 209 450 313 203 144 284 209 346 274 64 68 86 84
105 81 20 -2 24 -8 22 -35z m-318 -108 c-14 -25 -35 -49 -45 -55 -18 -10 -17
-4 9 47 16 32 35 76 42 98 l14 40 3 -43 c2 -32 -3 -54 -23 -87z m1675 97 c0
-17 -15 -49 -36 -78 -22 -30 -33 -40 -29 -26 9 32 55 132 61 132 2 0 4 -13 4
-28z m-2265 -132 c-32 -79 -46 -91 -34 -27 4 23 8 45 9 48 0 12 42 60 48 55 3
-3 -7 -37 -23 -76z m952 58 c-3 -13 -9 -47 -13 -75 -3 -29 -10 -50 -15 -47
-13 8 -11 118 3 132 19 19 31 14 25 -10z m883 -67 c12 -43 13 -81 3 -81 -8 0
-38 80 -50 130 -6 25 -6 25 15 6 12 -10 26 -35 32 -55z m-1353 13 c-5 -32 -54
-113 -69 -114 -3 0 8 35 25 79 32 80 54 97 44 35z m933 30 c0 -28 -63 -80
-124 -103 -32 -12 -60 -20 -62 -18 -3 2 22 20 53 40 32 20 74 49 93 66 41 36
40 35 40 15z m824 -119 c-37 -65 -43 -47 -8 27 21 45 30 56 32 40 2 -12 -9
-42 -24 -67z m-467 8 c7 -66 -14 -45 -23 22 -5 40 -4 48 6 38 7 -6 15 -33 17
-60z m-1864 -15 c-10 -18 -24 -46 -31 -63 -12 -29 -12 -28 -8 18 2 33 11 56
27 73 30 31 36 16 12 -28z m981 -33 c7 -29 7 -29 -8 -10 -8 11 -15 31 -15 45
0 30 12 11 23 -35z m447 1 c-8 -13 -30 -31 -50 -39 -43 -19 -109 -33 -98 -21
15 15 151 93 156 89 2 -3 -1 -16 -8 -29z m-491 -39 c-1 -48 -2 -50 -15 -33
-15 20 -20 77 -9 89 15 15 24 -7 24 -56z m-1010 31 c-1 -7 -12 -33 -25 -58
l-24 -45 -1 35 c0 35 22 80 41 80 5 0 9 -6 9 -12z m2450 4 c0 -4 -11 -23 -25
-42 -28 -37 -31 -33 -13 17 11 29 38 47 38 25z m50 -53 c0 -19 -20 -48 -41
-59 -20 -11 -20 -11 1 29 19 39 40 54 40 30z m-2580 -20 c0 -11 -49 -99 -56
-99 -11 0 -1 49 16 78 19 31 40 43 40 21z m1060 -52 c0 -5 -7 -4 -15 3 -8 7
-15 20 -15 29 1 13 3 13 15 -3 8 -11 15 -24 15 -29z m450 18 c0 -20 -38 -53
-77 -66 -58 -19 -56 -5 4 38 65 46 73 49 73 28z m1110 -14 c0 -10 -10 -26 -21
-37 l-21 -19 7 35 c4 19 9 38 12 43 7 12 23 -3 23 -22z m-205 -268 c88 -88 92
-107 10 -45 -43 33 -265 285 -265 301 0 3 39 -34 87 -84 48 -49 123 -127 168
-172z m245 223 c0 -13 -9 -34 -21 -47 l-21 -24 7 25 c4 14 9 35 12 48 7 29 23
28 23 -2z m45 -56 c6 -10 -23 -75 -31 -67 -3 3 -2 21 1 41 7 35 18 45 30 26z
m-1275 -14 c0 -18 -55 -61 -90 -71 -20 -5 -15 3 25 39 54 49 65 54 65 32z
m-1132 -28 c-23 -35 -94 -86 -135 -97 -20 -6 -39 -9 -41 -6 -5 4 48 41 128 90
67 40 66 40 48 13z m2443 -31 c-17 -44 -33 -44 -25 0 9 49 15 59 25 40 5 -9 5
-26 0 -40z m49 -9 c0 -13 -7 -32 -15 -42 -14 -19 -15 -18 -15 15 0 20 3 39 7
42 13 14 23 7 23 -15z m-1825 -120 c-5 -46 -9 -95 -9 -110 -2 -46 -13 -41 -20
10 -6 45 3 123 19 165 14 36 17 14 10 -65z m1866 39 c-8 -8 -11 -5 -11 9 0 27
14 41 18 19 2 -9 -1 -22 -7 -28z m-1471 21 c0 -14 -59 -78 -72 -78 -17 0 -7
26 24 57 34 35 48 41 48 21z m-1460 -172 c-19 -18 -50 -50 -68 -70 -18 -21
-35 -37 -37 -35 -1 2 4 21 12 42 10 25 32 48 66 71 62 42 75 37 27 -8z m1414
20 c-6 -16 -24 -23 -24 -8 0 10 22 33 27 28 2 -2 1 -11 -3 -20z m-1593 -242
c-2 -28 -7 -44 -15 -41 -17 6 -19 35 -5 86 11 38 14 42 19 23 3 -13 3 -44 1
-68z m1613 23 c40 -29 -18 -67 -90 -59 -26 3 -34 9 -34 24 0 12 8 27 18 34 22
17 83 18 106 1z m229 -29 c29 -15 17 -51 -19 -61 -44 -13 -107 14 -102 45 5
35 67 43 121 16z m-2189 -4 c19 -18 20 -40 5 -99 -15 -59 -41 -82 -74 -67 -43
20 -46 103 -4 156 23 30 50 33 73 10z m100 -219 c9 -22 29 -50 44 -62 21 -18
23 -23 10 -23 -30 0 -85 58 -102 107 -21 60 -20 134 1 181 l17 37 7 -100 c3
-55 14 -118 23 -140z m1627 215 c26 -14 24 -34 -6 -54 -26 -17 -94 -24 -113
-12 -16 9 -15 41 1 54 26 21 88 27 118 12z m676 -31 c7 -6 13 -20 13 -30 0
-16 -8 -19 -41 -19 -22 0 -49 5 -60 10 -24 13 -25 47 -1 53 24 7 72 -1 89 -14z
m-2093 -53 c19 -60 19 -56 1 -56 -21 0 -35 32 -35 81 0 51 11 43 34 -25z
m1690 38 c22 -21 20 -51 -3 -64 -11 -5 -40 -10 -65 -10 -35 0 -48 4 -56 20
-14 26 -6 38 34 56 41 18 71 17 90 -2z m584 -21 c48 -30 1 -54 -63 -33 -38 13
-45 33 -17 49 19 11 45 6 80 -16z m-764 -16 c15 -11 17 -17 7 -35 -27 -50
-115 -72 -149 -38 -20 20 -3 62 30 76 34 13 92 12 112 -3z m370 3 c31 -11 33
-23 6 -50 -24 -24 -86 -27 -118 -4 -26 18 -27 27 -6 48 17 18 79 21 118 6z
m-655 -20 c22 -11 18 -51 -8 -73 -28 -25 -85 -39 -115 -28 -43 17 -28 59 32
90 42 23 65 25 91 11z m825 -1 c55 -25 40 -64 -24 -63 -45 2 -70 18 -70 44 0
30 49 39 94 19z m-1176 -28 c-12 -15 -27 -36 -33 -45 -9 -16 -12 -16 -40 -2
-58 30 -153 15 -208 -34 -30 -26 -34 -27 -57 -13 -23 13 -24 14 -3 10 12 -3
28 2 34 10 38 45 163 76 218 53 28 -11 33 -10 68 19 47 38 51 39 21 2z m1360
8 c35 -12 52 -46 31 -60 -23 -14 -52 -10 -89 12 l-34 21 23 19 c27 22 28 22
69 8z m-1216 -56 c28 -26 22 -41 -30 -67 -68 -34 -120 -43 -128 -21 -24 61
107 134 158 88z m342 -12 c10 -16 -42 -68 -85 -85 -35 -14 -99 -15 -99 -1 0
22 26 59 52 75 34 21 122 28 132 11z m-900 -45 c-10 -8 -21 -12 -24 -10 -5 6
21 24 34 24 6 0 1 -6 -10 -14z m326 -6 c24 -24 26 -53 5 -70 -20 -17 -130 -16
-150 0 -20 16 -19 54 1 74 24 24 118 22 144 -4z m-1142 -72 c23 -89 98 -156
194 -173 29 -6 43 -3 63 13 14 11 48 25 75 32 43 10 54 10 75 -4 30 -20 32
-45 5 -74 -35 -37 -61 -36 -197 5 -134 40 -187 72 -199 119 -6 24 -7 23 -45
-18 -37 -42 -39 -42 -54 -24 -21 27 -20 129 1 150 8 9 28 16 44 16 24 0 29 -5
38 -42z m912 22 c46 -46 6 -100 -74 -100 -97 0 -117 62 -32 101 53 24 81 24
106 -1z m555 10 c17 -27 -57 -90 -106 -90 -53 0 -65 64 -17 88 29 13 115 15
123 2z m-916 -16 c-7 -8 -30 -24 -52 -35 -37 -20 -40 -20 -65 -2 l-27 17 51 8
c28 4 61 12 75 17 33 13 33 13 18 -5z m609 -60 c12 -4 22 -14 22 -24 0 -29
-37 -53 -89 -58 -40 -4 -52 -1 -70 17 -12 12 -20 28 -18 34 10 30 94 47 155
31z m-480 -20 c27 -18 28 -54 4 -84 -38 -47 -182 -35 -182 14 0 22 41 69 70
79 30 11 86 7 108 -9z m226 -40 c20 -8 21 -43 1 -71 -20 -29 -84 -47 -119 -33
-30 11 -31 12 -11 50 24 46 84 71 129 54z m-224 -104 c13 -8 12 -13 -6 -37
-43 -57 -154 -70 -154 -18 0 42 33 65 93 65 28 0 59 -5 67 -10z m-573 -60 c60
-36 53 -100 -11 -100 -71 0 -118 59 -81 100 23 25 51 25 92 0z m272 -7 c58
-49 -61 -126 -123 -80 -25 19 -13 53 27 78 40 24 69 24 96 2z"/>
<path d="M2505 2896 c-39 -29 -11 -126 36 -126 37 0 55 93 23 124 -19 20 -35
20 -59 2z"/>
<path d="M3121 2931 c-31 -8 -50 -36 -34 -52 16 -16 87 -23 112 -10 29 16 27
49 -5 61 -28 11 -38 11 -73 1z"/>
<path d="M6010 1896 c-58 -16 -98 -38 -132 -71 -27 -24 -63 -83 -56 -90 5 -5
170 13 176 19 3 3 0 17 -6 31 -7 14 -12 35 -12 46 0 55 122 45 143 -12 10 -25
17 -29 52 -30 73 -2 109 3 138 18 34 17 27 31 -42 71 -37 22 -59 26 -130 29
-50 1 -105 -3 -131 -11z"/>
<path d="M4850 1164 c-47 -13 -135 -29 -195 -34 -61 -5 -210 -28 -330 -50
-121 -22 -240 -40 -265 -40 -95 0 -254 -59 -539 -199 -90 -44 -193 -90 -228
-102 -36 -12 -61 -24 -56 -28 11 -10 132 -61 143 -61 5 0 17 13 26 29 38 65
141 92 182 48 12 -13 22 -26 22 -30 0 -3 -27 -25 -61 -48 l-61 -41 46 -24 46
-24 51 35 c55 37 69 41 100 25 29 -16 24 -29 -33 -82 -43 -40 -50 -51 -38 -58
24 -16 28 -13 94 55 l62 65 57 -20 c44 -15 62 -18 77 -10 11 6 20 14 20 19 0
4 17 26 38 49 l38 41 70 -6 69 -5 53 42 53 42 79 -6 c96 -9 113 -4 140 37 43
68 44 69 76 52 52 -27 126 -13 176 33 26 24 28 24 62 8 48 -23 114 -20 168 7
44 22 45 22 74 4 37 -23 118 -17 171 13 l38 21 40 -21 c31 -16 58 -20 131 -20
73 0 94 -3 105 -17 15 -17 126 -73 146 -73 6 0 28 -15 47 -34 29 -26 47 -34
87 -38 50 -5 64 -13 163 -92 26 -20 52 -30 91 -35 49 -5 57 -10 83 -47 27 -37
35 -42 81 -46 37 -4 66 -15 104 -41 67 -45 92 -52 137 -37 31 10 42 10 69 -4
93 -49 302 -16 540 86 343 146 434 271 383 528 l-18 94 -94 -3 c-112 -3 -134
-11 -160 -53 -48 -79 1 -180 74 -152 11 4 7 13 -20 36 -29 26 -35 37 -32 66 4
48 25 59 85 44 94 -24 133 -110 99 -218 -24 -77 -83 -133 -171 -163 -38 -13
-132 -53 -209 -88 -102 -48 -153 -66 -196 -70 -72 -7 -90 12 -20 21 156 21 93
48 -120 51 -219 4 -281 27 -555 205 -254 165 -406 243 -604 309 -117 38 -221
58 -376 71 -172 14 -220 12 -315 -16z m98 -74 c32 -16 42 -26 42 -45 0 -31
-26 -45 -84 -45 -88 0 -125 37 -73 76 l22 16 -25 -5 c-14 -3 -52 -11 -85 -17
-88 -18 -94 -20 -67 -31 28 -11 28 -20 -2 -48 -30 -28 -108 -40 -132 -20 -9 7
-14 22 -11 35 4 21 1 22 -27 17 -56 -11 -121 -31 -105 -32 9 -1 24 -10 33 -20
35 -39 -14 -81 -95 -81 -75 0 -99 30 -57 72 l21 21 -24 -6 c-13 -4 -52 -12
-87 -18 -65 -12 -68 -14 -30 -33 79 -39 -48 -140 -135 -107 -35 14 -40 26 -22
60 8 17 15 32 15 34 0 2 -34 0 -75 -5 -78 -8 -183 -39 -223 -65 -13 -8 -26
-13 -28 -10 -8 7 59 43 112 60 27 9 96 25 154 36 58 11 200 53 315 92 229 79
258 84 506 87 108 2 131 -1 167 -18z m221 14 c18 -4 39 -18 49 -32 15 -23 15
-25 -3 -38 -36 -27 -129 -12 -142 22 -4 11 2 24 16 36 25 20 33 21 80 12z
m308 -47 c15 -15 15 -18 -2 -37 -27 -30 -128 -29 -149 2 -9 12 -16 26 -16 31
0 29 138 33 167 4z m232 -53 c17 -14 31 -30 31 -35 0 -15 -39 -49 -52 -45 -7
3 -25 7 -40 10 -15 4 -35 17 -44 30 -39 60 44 92 105 40z m-731 -26 c17 -17
15 -38 -5 -60 -20 -22 -109 -25 -137 -5 -16 11 -17 17 -7 36 7 12 22 26 34 31
32 13 101 12 115 -2z m233 -7 c20 -16 22 -23 13 -38 -12 -19 -78 -29 -121 -18
-28 7 -46 44 -31 63 17 20 112 15 139 -7z m276 -13 c14 -14 13 -18 -6 -37 -28
-28 -118 -30 -150 -3 -22 18 -19 31 14 51 27 16 122 8 142 -11z m-762 -28 c27
-30 7 -66 -44 -80 -51 -13 -91 3 -91 36 0 24 21 40 69 55 40 12 47 10 66 -11z
m993 -46 c23 -26 23 -28 6 -41 -23 -17 -56 -17 -99 2 -38 15 -51 35 -41 61 5
13 16 16 58 12 41 -4 57 -11 76 -34z m184 7 c27 -25 31 -33 22 -48 -15 -24
-69 -28 -100 -8 -23 15 -34 62 -17 78 16 17 65 5 95 -22z m-1414 -23 c40 -40
-15 -88 -99 -88 -63 0 -76 9 -59 40 26 48 127 79 158 48z m-618 -31 c18 -9 24
-19 22 -37 -8 -53 -68 -90 -146 -90 -48 0 -66 16 -66 59 0 56 126 101 190 68z
m1985 -32 c41 -16 53 -39 34 -61 -17 -21 -92 -14 -119 11 -24 22 -25 29 -4 49
19 20 45 20 89 1z m248 -23 c26 -23 18 -56 -14 -60 -20 -2 -33 5 -54 29 -25
31 -26 34 -9 46 20 15 50 9 77 -15z m-1869 5 c40 -30 -31 -87 -107 -87 -38 0
-73 30 -63 55 14 37 132 59 170 32z m1819 -75 c9 -8 17 -28 17 -44 0 -33 -23
-37 -70 -13 -37 19 -49 54 -24 72 20 14 50 9 77 -15z m-2059 12 c44 -17 -13
-97 -78 -110 -43 -8 -80 6 -96 36 -9 17 -6 25 19 50 25 26 37 30 84 30 31 0
62 -3 71 -6z m2283 -65 c35 -22 38 -35 10 -53 -21 -13 -71 21 -75 53 -4 28 20
28 65 0z m-24 -73 c45 -41 11 -79 -44 -50 -33 16 -44 36 -35 59 8 23 50 18 79
-9z m215 -12 c31 -21 28 -41 -8 -49 l-30 -7 22 -17 c45 -37 -16 -71 -73 -41
-28 15 -24 48 6 56 21 5 23 8 10 21 -16 15 -19 35 -8 46 12 12 58 7 81 -9z
m180 -30 c29 -20 28 -42 -4 -50 -34 -9 -74 10 -74 35 0 32 42 40 78 15z m22
-90 c13 -14 13 -17 -5 -30 -43 -32 -116 3 -85 41 16 20 66 14 90 -11z"/>
<path d="M4560 1040 c-11 -7 -5 -8 20 -4 43 8 51 14 19 14 -13 0 -31 -5 -39
-10z"/>
<path d="M4556 802 c-4 -10 -20 -32 -37 -48 -28 -26 -37 -29 -112 -32 -149 -5
-147 -8 57 -82 103 -38 191 -71 194 -74 14 -15 -26 -3 -135 40 -65 25 -149 53
-188 61 -66 13 -72 13 -128 -7 -42 -16 -69 -20 -97 -15 -53 9 -72 -4 -31 -21
39 -17 67 -74 51 -104 -17 -31 -50 -24 -92 20 -36 39 -38 40 -38 16 0 -39 39
-76 86 -83 38 -5 42 -3 62 31 24 41 31 43 61 19 14 -12 22 -32 24 -58 4 -64
63 -125 121 -125 27 0 33 5 50 46 35 86 103 83 93 -4 -7 -62 21 -93 91 -100
82 -7 99 1 114 56 15 53 37 63 89 41 22 -8 28 -16 23 -28 -18 -43 -16 -59 10
-76 35 -23 108 -31 146 -15 16 7 30 16 30 21 0 20 64 79 85 79 26 0 35 -17 35
-65 0 -24 7 -39 22 -49 26 -19 91 -21 137 -5 28 10 31 15 31 56 0 60 14 83 50
83 30 0 57 -30 45 -50 -11 -18 5 -47 31 -58 14 -7 47 -12 74 -12 38 0 55 6 77
24 28 25 28 25 11 56 -26 46 -22 59 18 76 46 19 59 8 59 -48 0 -37 3 -42 27
-49 38 -10 107 10 124 36 12 19 12 26 0 57 -27 63 23 79 84 28 41 -35 75 -38
130 -10 50 26 53 32 39 79 -8 28 -19 41 -36 46 -13 3 -55 35 -94 70 l-70 64
-60 -2 c-60 -2 -60 -2 -102 44 l-42 47 -180 -35 c-217 -41 -381 -47 -535 -19
-78 14 -319 72 -382 92 -10 3 -19 -2 -22 -14z m152 -106 c-11 -22 -27 -36 -41
-36 -4 0 2 19 14 42 15 30 23 37 29 28 5 -8 4 -23 -2 -34z m82 11 c-1 -15 -39
-66 -40 -51 0 23 22 74 31 68 5 -3 9 -11 9 -17z m75 -16 c6 -11 -15 -61 -27
-61 -9 0 -10 16 -2 48 7 23 19 29 29 13z m65 -36 c0 -36 -17 -39 -22 -5 -3 17
-2 32 0 35 10 9 22 -7 22 -30z m78 11 c2 -9 1 -25 -3 -34 -6 -15 -8 -15 -15 3
-13 31 -12 57 3 53 6 -3 14 -12 15 -22z m507 5 c-6 -5 -23 -12 -40 -16 l-30
-6 25 15 c28 17 60 22 45 7z m-413 -41 c5 -32 -6 -41 -16 -14 -9 24 -7 56 3
50 5 -3 11 -19 13 -36z m148 21 c12 -24 2 -60 -11 -39 -9 14 -12 58 -4 58 2 0
9 -9 15 -19z m-72 -27 c2 -28 2 -28 -13 -10 -18 24 -20 49 -2 44 6 -3 13 -18
15 -34z m182 15 c0 -18 -2 -19 -15 -9 -8 7 -15 16 -15 21 0 5 7 9 15 9 9 0 15
-9 15 -21z m485 -49 c-11 -17 -164 -60 -253 -70 -48 -5 -152 -12 -232 -15
l-145 -4 125 20 c69 11 211 33 315 49 105 15 191 28 193 29 2 1 0 -3 -3 -9z
m199 -105 c9 -24 -29 -55 -68 -55 -43 0 -63 21 -38 42 34 30 96 38 106 13z
m-1679 -31 c48 -45 20 -95 -40 -69 -17 7 -38 22 -49 33 -17 20 -17 23 -3 45
19 30 54 26 92 -9z m1435 -54 c35 -22 -42 -80 -80 -60 -24 13 -25 28 -3 52 17
19 59 24 83 8z m-1165 -14 c59 -25 44 -86 -22 -86 -73 0 -116 47 -73 82 27 22
50 23 95 4z m310 -36 c37 -14 43 -39 16 -62 -28 -22 -69 -23 -99 -2 -58 41 8
93 83 64z m606 0 c24 -13 24 -25 -1 -50 -34 -34 -110 -22 -110 16 0 6 17 19
38 27 45 19 48 20 73 7z m-290 -30 c23 -13 24 -33 3 -54 -18 -19 -53 -20 -89
-4 -31 14 -29 38 5 55 31 16 55 16 81 3z"/>
<path d="M2422 532 c-58 -24 -61 -27 -41 -38 46 -24 62 -89 30 -118 -26 -23
-52 -14 -91 31 -37 41 -52 38 -21 -5 12 -17 21 -39 21 -49 0 -27 -31 -53 -65
-56 -23 -2 -29 3 -37 28 -20 64 -18 62 -34 41 -20 -28 -18 -41 17 -81 30 -34
71 -46 84 -25 13 20 24 9 27 -27 3 -34 8 -41 47 -60 24 -12 68 -27 99 -34 47
-9 60 -9 83 5 15 9 36 16 48 16 25 0 91 -30 91 -42 0 -12 88 -10 113 3 12 6
50 39 84 72 l63 61 35 -17 c70 -34 97 -25 178 56 77 77 86 82 197 94 30 3 69
11 87 18 18 8 49 11 74 8 l42 -6 -27 36 c-16 20 -52 48 -82 63 -47 23 -63 26
-131 22 -63 -3 -84 -8 -110 -27 l-32 -24 -93 14 c-61 10 -104 12 -126 7 -26
-7 -38 -5 -62 12 -28 20 -34 21 -79 9 -42 -11 -56 -9 -118 10 -70 21 -163 28
-163 13 0 -4 21 -12 48 -19 26 -6 81 -21 122 -34 l75 -24 -53 -3 c-75 -4 -158
22 -200 64 -19 19 -35 33 -35 33 -1 -1 -30 -13 -65 -27z m906 -48 c50 -35 13
-78 -70 -78 -72 0 -99 33 -58 74 25 25 95 27 128 4z m-258 -12 c19 -16 21 -22
11 -40 -26 -48 -110 -67 -151 -34 -28 23 -22 63 12 80 37 17 103 14 128 -6z
m-472 -82 c26 -16 32 -26 32 -54 0 -25 -7 -39 -22 -50 -30 -21 -51 -20 -98 4
-64 33 -79 79 -32 104 38 21 81 19 120 -4z m253 -16 c25 -23 24 -59 -3 -78
-32 -23 -120 -21 -148 2 -21 17 -22 21 -9 47 8 16 25 35 39 43 32 16 95 9 121
-14z m287 -10 c28 -19 28 -36 0 -69 -46 -53 -151 -52 -164 1 -15 60 105 110
164 68z m-648 -106 c57 -30 71 -52 47 -75 -35 -36 -149 -11 -181 39 -8 13 -6
22 8 37 25 28 70 27 126 -1z m318 -4 c51 -36 -3 -97 -87 -98 -85 -2 -121 56
-58 94 39 24 113 26 145 4z"/>
</g>
</svg>
