<?xml version="1.0" standalone="no"?>
<!DOCTYPE svg PUBLIC "-//W3C//DTD SVG 20010904//EN"
 "http://www.w3.org/TR/2001/REC-SVG-20010904/DTD/svg10.dtd">
<svg version="1.0" xmlns="http://www.w3.org/2000/svg"
 width="453.000000pt" height="553.000000pt" viewBox="0 0 453.000000 553.000000"
 preserveAspectRatio="xMidYMid meet">

<g transform="translate(0.000000,553.000000) scale(0.100000,-0.100000)"
fill="#000000" stroke="none">
<path d="M3210 5445 c-456 -95 -588 -135 -651 -195 -34 -32 -39 -43 -39 -81 0
-30 10 -61 30 -98 17 -30 27 -58 23 -62 -5 -4 -145 -43 -312 -87 l-304 -81
-40 35 c-46 39 -92 45 -154 19 -19 -8 -48 -15 -62 -15 -16 0 -37 -10 -51 -25
-13 -14 -49 -37 -79 -51 -66 -30 -121 -70 -121 -88 0 -8 -46 -25 -127 -46
-378 -96 -1258 -372 -1290 -403 -3 -3 -2 -15 2 -26 4 -14 15 -21 32 -21 14 0
143 38 287 84 541 175 963 302 973 293 2 -3 -17 -18 -44 -33 -99 -56 -111 -65
-156 -113 -25 -27 -49 -62 -52 -78 -3 -15 -15 -52 -27 -82 -19 -49 -20 -56 -6
-85 22 -45 100 -128 171 -182 72 -54 201 -119 255 -129 29 -5 45 -17 76 -57
48 -62 124 -122 196 -157 30 -14 58 -30 62 -36 12 -17 26 -96 33 -185 8 -106
26 -171 70 -257 19 -38 35 -71 35 -75 0 -4 -11 -3 -24 4 -18 7 -27 22 -31 49
-11 67 -42 71 -103 15 l-23 -21 -42 46 c-23 25 -63 69 -89 97 -48 51 -84 70
-114 58 -12 -5 -15 -14 -10 -34 21 -97 20 -117 -19 -203 -20 -46 -47 -111 -59
-144 -21 -56 -24 -60 -54 -60 -21 0 -37 -7 -47 -22 -19 -27 -50 -30 -59 -7 -3
9 -6 38 -6 65 0 28 -5 59 -10 70 -21 38 -102 64 -113 36 -7 -19 17 -82 53
-141 25 -40 34 -68 41 -131 5 -44 12 -97 15 -118 6 -37 -7 -67 -28 -67 -6 0
-35 27 -66 60 -67 73 -95 78 -100 16 -4 -43 30 -104 72 -131 21 -14 155 -164
193 -216 8 -11 -11 -5 -56 17 -66 33 -240 84 -287 84 -56 0 -38 -32 58 -107
80 -61 87 -78 47 -102 -22 -13 -43 -18 -63 -14 -35 6 -139 55 -233 108 -47 28
-74 36 -113 37 -57 2 -81 -13 -64 -40 21 -33 106 -89 187 -122 164 -67 270
-124 327 -177 51 -47 142 -162 194 -245 l21 -33 -38 28 c-49 37 -93 55 -123
49 -45 -8 -27 -41 95 -168 65 -68 126 -139 135 -158 12 -25 17 -69 19 -158 4
-170 12 -185 185 -352 56 -54 105 -96 108 -93 3 3 -4 23 -16 46 -11 23 -18 41
-15 41 21 0 283 -142 385 -209 74 -48 127 -76 129 -69 6 19 -112 105 -260 188
-41 23 -129 82 -195 131 -65 50 -135 98 -154 109 -76 40 -120 113 -120 198 0
118 -53 225 -173 350 -100 104 -100 104 38 20 40 -24 55 -23 55 5 0 31 -29 76
-125 192 -160 195 -194 223 -360 296 -127 55 -196 95 -203 118 -6 18 13 11
173 -57 153 -65 220 -77 254 -43 13 13 21 34 21 56 0 31 -7 40 -61 82 -33 26
-56 49 -50 51 15 5 96 -24 151 -53 42 -23 43 -24 13 -18 -47 8 -41 -8 24 -67
58 -52 58 -52 26 -48 -41 6 -41 0 -3 -37 43 -41 40 -59 -7 -52 -21 3 -63 9
-93 12 l-55 6 65 -62 c36 -34 128 -119 205 -189 120 -109 146 -138 184 -206
59 -106 204 -328 254 -387 22 -26 37 -51 33 -54 -4 -5 -55 12 -108 35 -5 2 -8
-5 -8 -16 0 -28 35 -68 101 -117 58 -43 206 -111 217 -101 3 3 -15 32 -40 63
-150 193 -341 526 -513 897 -25 55 -64 154 -86 220 -46 139 -71 176 -208 312
-50 51 -91 99 -91 109 0 14 3 14 28 -4 16 -11 35 -27 42 -36 8 -9 50 -38 94
-63 45 -26 109 -73 144 -105 82 -76 96 -74 100 18 2 39 -2 108 -9 154 -12 76
-11 84 5 93 9 5 16 19 15 31 -2 38 1 57 10 57 22 0 47 -115 56 -255 16 -246
39 -315 106 -315 l30 0 -8 -67 c-14 -122 -8 -221 21 -318 35 -115 99 -250 166
-351 129 -191 570 -568 797 -683 145 -72 253 -12 214 120 -16 52 -8 62 34 42
72 -34 79 36 14 122 -37 49 -41 58 -31 80 16 34 45 31 90 -9 24 -22 57 -39 92
-48 45 -10 56 -17 58 -36 3 -18 -4 -26 -33 -38 -46 -19 -37 -34 21 -34 37 0
51 6 76 30 26 26 29 35 24 68 -6 34 -4 38 26 52 18 8 34 22 36 31 5 25 -33 98
-78 153 -42 50 -48 78 -18 84 11 2 37 -22 75 -67 31 -39 61 -71 65 -71 18 0 6
36 -30 94 -21 34 -49 86 -61 116 -23 55 -47 90 -62 90 -4 0 -21 -33 -37 -72
-79 -189 -126 -278 -139 -264 -2 2 4 19 12 39 18 42 18 47 6 47 -5 0 -25 -22
-44 -49 -20 -27 -46 -52 -59 -56 -34 -11 -58 -35 -58 -59 -1 -21 -1 -21 -15
-1 -9 10 -23 43 -32 72 -9 29 -20 53 -24 53 -5 0 -9 -28 -11 -62 -2 -34 -8
-63 -14 -65 -6 -2 -32 25 -59 59 -48 62 -66 65 -46 8 9 -27 8 -30 -12 -30 -37
0 -51 17 -63 78 -7 32 -26 93 -42 134 -33 81 -51 201 -33 212 5 4 28 -5 50
-20 22 -14 47 -24 56 -20 31 11 13 91 -31 137 l-25 27 55 56 c56 57 154 113
181 102 8 -3 21 -16 30 -29 13 -21 14 -35 6 -88 -13 -81 -19 -179 -11 -179 4
0 19 53 34 117 15 64 34 129 42 145 17 33 61 58 104 58 38 0 38 -10 5 -149
-14 -57 -24 -106 -22 -108 5 -4 26 46 67 155 35 92 44 97 98 56 31 -24 34 -30
28 -65 -3 -21 -22 -91 -41 -155 -20 -64 -33 -119 -31 -122 3 -3 17 19 30 49
13 30 34 77 47 104 l22 50 6 -30 c3 -16 21 -58 39 -93 33 -63 196 -337 265
-445 20 -31 39 -68 43 -82 4 -15 22 -38 40 -53 20 -16 34 -36 34 -48 0 -12 16
-55 35 -95 44 -95 69 -191 60 -238 -8 -45 -49 -117 -75 -131 -23 -12 -57 -13
-64 -1 -4 5 -13 46 -22 91 -19 104 -48 182 -76 206 -21 19 -21 19 -13 -11 27
-104 33 -226 14 -268 -14 -30 -59 -57 -96 -57 -22 0 -38 11 -66 45 -57 67
-101 97 -144 97 -70 0 -82 -60 -33 -171 67 -154 65 -211 -10 -211 -72 0 -115
34 -200 160 -22 33 -46 60 -52 60 -36 0 56 -220 123 -294 46 -50 48 -51 102
-51 64 0 102 22 130 76 26 50 16 106 -39 206 -59 109 -68 140 -49 170 11 16
25 23 48 23 45 0 78 -37 113 -124 44 -110 158 -217 257 -240 47 -11 30 8 -41
44 l-67 35 63 6 c67 6 112 35 112 70 0 15 6 17 30 12 24 -4 37 0 55 17 36 33
48 84 47 183 -3 110 -14 162 -59 261 -20 44 -41 101 -48 128 -17 64 -6 57 88
-52 40 -47 88 -95 106 -107 122 -82 229 -30 278 136 25 86 15 131 -56 258 -63
112 -70 143 -32 143 22 0 76 -57 86 -92 10 -33 35 -58 57 -58 27 0 49 60 56
152 4 63 2 82 -13 104 -15 24 -16 31 -4 68 8 23 14 80 14 127 0 79 -3 90 -31
136 -28 45 -30 52 -17 69 23 30 11 121 -28 204 -33 71 -33 72 -20 145 14 85 3
122 -44 143 -44 20 -59 0 -51 -68 6 -54 5 -57 -19 -68 -46 -21 -89 -14 -136
22 -70 53 -107 106 -102 142 4 24 -2 39 -26 66 -36 42 -38 59 -11 156 27 96
26 138 -2 153 -18 10 -24 8 -40 -11 -10 -12 -18 -29 -18 -37 0 -9 -12 -42 -27
-75 l-26 -59 12 -108 c19 -157 3 -186 -62 -111 -21 25 -46 74 -67 137 -18 53
-42 105 -53 116 -20 20 -20 20 -44 -9 -16 -20 -30 -28 -47 -26 -20 3 -26 -3
-36 -35 -26 -78 -61 -86 -89 -20 -22 50 -35 62 -78 72 -32 6 -76 49 -103 100
-12 22 -9 28 39 82 29 32 54 67 57 78 3 13 29 31 72 50 36 16 87 46 113 67 43
34 49 36 85 27 22 -4 74 -9 117 -9 70 0 83 -3 122 -30 80 -55 235 -128 305
-144 170 -39 253 -6 394 155 79 90 99 148 97 272 -4 158 -3 189 4 247 9 75
-36 219 -89 283 -45 55 -104 97 -137 97 -28 0 -69 -33 -69 -56 0 -8 -22 -36
-50 -63 -34 -33 -50 -57 -50 -74 0 -14 -6 -27 -14 -30 -8 -3 -22 -17 -32 -31
-15 -23 -15 -28 -1 -49 8 -13 32 -28 54 -35 21 -6 54 -27 72 -46 31 -32 33
-39 29 -81 -4 -30 -18 -65 -42 -100 l-36 -55 -64 54 c-107 91 -146 109 -245
114 l-86 5 -70 72 c-81 82 -126 103 -245 112 -41 2 -95 12 -119 21 l-43 16 7
40 c4 23 9 63 9 90 1 29 7 51 14 54 19 6 34 40 22 47 -6 4 -10 3 -9 -2 4 -20
-3 -31 -26 -41 -14 -6 -25 -11 -25 -9 1 14 49 97 50 85 0 -20 20 -25 20 -5 0
6 16 22 35 35 28 17 35 29 35 53 0 21 8 37 25 51 14 11 25 25 25 33 0 7 9 15
19 18 40 10 56 54 56 157 0 167 -42 229 -182 266 -50 12 -74 25 -91 46 -60 73
-136 95 -442 128 -251 27 -248 26 -271 63 -17 29 -19 30 -19 9 0 -12 7 -34 16
-47 20 -30 12 -70 -16 -85 -22 -12 -65 5 -90 35 -15 19 -63 45 -81 45 -8 0 -6
-7 5 -19 11 -12 16 -31 14 -53 -3 -29 -7 -33 -35 -36 -18 -2 -49 6 -73 18
l-41 21 16 -30 c21 -41 20 -47 -21 -96 -25 -31 -40 -42 -52 -38 -15 6 -15 5
-3 -11 17 -20 87 -68 183 -124 l68 -39 -39 -11 c-49 -15 -60 -15 -93 2 -16 8
-28 11 -28 7 0 -23 33 -44 90 -57 36 -8 76 -24 90 -35 l25 -19 -28 10 c-16 5
-32 10 -36 10 -15 0 42 -101 72 -126 16 -14 28 -26 26 -28 -2 -1 -31 -10 -63
-18 l-59 -16 -89 53 c-130 79 -162 88 -311 91 -90 2 -135 7 -150 17 -67 44
-156 80 -209 85 -32 2 -58 6 -58 8 0 1 12 39 26 84 21 64 37 92 76 135 41 46
53 53 68 45 43 -23 156 -2 203 38 10 9 17 29 17 49 0 26 4 33 20 33 24 0 42
40 38 83 l-3 30 309 83 c171 46 310 82 311 81 11 -26 102 -129 140 -157 117
-87 156 -84 659 51 154 42 276 85 276 99 0 4 -55 10 -122 14 -68 4 -143 9
-167 13 l-44 6 28 -37 c15 -20 25 -36 22 -36 -3 0 -99 -27 -213 -60 -210 -61
-265 -69 -323 -49 -35 12 -177 168 -164 179 10 8 127 40 146 40 9 0 18 -22 25
-66 6 -37 14 -69 17 -72 6 -6 269 125 473 236 93 50 118 68 104 73 -23 9 -752
18 -752 10 0 -4 11 -13 24 -21 24 -15 86 -86 86 -99 0 -4 -38 -16 -84 -27
l-83 -21 -27 43 c-80 127 -30 178 246 249 l129 34 71 -25 71 -24 71 54 c73 56
159 106 182 106 7 0 16 5 19 10 9 14 4 13 -225 -35z m39 -38 c-31 -19 -66 -41
-78 -49 -21 -15 -28 -15 -70 -2 -64 19 -91 18 -206 -11 -303 -77 -350 -119
-282 -255 44 -89 2 -81 -45 8 -22 42 -25 57 -18 87 10 45 34 72 80 92 63 27
336 101 467 127 70 14 137 27 148 29 53 12 54 4 4 -26z m161 -235 c0 -6 -462
-242 -474 -242 -9 0 -36 94 -29 101 5 3 71 23 148 43 130 35 210 65 175 66 -8
0 -292 -74 -630 -164 -338 -91 -619 -161 -623 -157 -5 5 27 18 70 29 582 154
997 266 1036 278 89 29 40 26 -75 -5 -63 -17 -119 -31 -125 -31 -6 0 -27 20
-47 45 l-37 45 305 0 c168 0 306 -3 306 -8z m-661 -272 c35 -39 78 -82 97 -97
56 -43 116 -37 376 37 123 35 224 64 226 66 2 1 -2 12 -8 24 -12 22 -11 22 21
16 19 -3 60 -6 92 -7 32 -1 54 -6 50 -10 -13 -12 -265 -85 -448 -130 -272 -66
-303 -61 -425 68 -60 63 -78 88 -68 94 21 14 22 13 87 -61z m-853 -38 c11 -6
38 -36 60 -67 30 -44 36 -60 28 -73 -6 -8 -16 -18 -22 -20 -14 -4 -72 84 -72
110 0 18 -1 18 -26 1 -26 -16 -26 -17 -7 -26 20 -9 53 -66 53 -92 0 -7 -10
-17 -22 -21 -18 -5 -29 1 -55 32 -19 21 -36 48 -39 61 -4 14 -14 23 -24 23
-24 0 -36 -18 -17 -26 8 -3 25 -25 38 -49 19 -36 21 -46 10 -59 -8 -9 -19 -16
-26 -16 -21 0 -85 78 -79 95 4 10 0 15 -14 15 -24 0 -42 -22 -24 -28 7 -2 22
-22 33 -45 21 -39 21 -41 3 -54 -28 -20 -44 -13 -79 37 -17 25 -40 47 -51 48
-52 10 -38 39 35 77 25 13 57 35 70 49 16 17 35 26 55 26 17 1 42 7 55 14 25
14 80 8 117 -12z m849 -193 l50 -18 -30 25 c-16 13 -23 23 -15 20 8 -3 49 -7
90 -11 41 -3 118 -13 170 -21 81 -13 99 -19 124 -44 35 -35 31 -46 -10 -26
-16 8 -42 17 -59 20 l-30 5 25 -19 c24 -18 24 -18 -40 -1 -74 21 -160 32 -160
21 0 -4 26 -13 58 -20 87 -19 214 -67 277 -106 31 -18 55 -28 52 -21 -2 6 -8
23 -12 36 l-7 24 46 -26 c39 -22 44 -23 36 -7 -14 26 -13 30 8 23 27 -9 62
-45 83 -83 l20 -35 -7 33 c-3 17 -3 32 0 32 3 0 19 -24 36 -52 21 -38 30 -47
30 -31 0 12 -4 33 -10 47 -16 43 0 29 21 -18 43 -97 31 -236 -20 -236 -25 0
-25 2 -6 59 17 47 14 72 -12 93 -15 12 -15 11 -4 -10 15 -29 6 -74 -20 -98
-25 -22 -33 -14 -18 20 10 21 9 32 -2 54 l-13 27 -4 -32 c-4 -38 -24 -57 -51
-48 -16 5 -18 12 -14 45 7 47 -13 82 -57 105 l-31 16 31 -42 c16 -23 30 -53
30 -66 0 -19 -5 -23 -29 -23 -25 0 -31 6 -41 36 -18 53 -75 111 -143 145 -32
17 -61 29 -63 26 -2 -2 21 -21 52 -42 74 -51 140 -147 109 -159 -9 -3 -18 7
-25 29 -11 34 -61 85 -83 85 -6 0 -2 -7 9 -15 21 -14 54 -72 54 -94 0 -21 -27
-11 -61 25 -29 31 -115 84 -135 84 -4 0 11 -12 32 -26 45 -30 104 -84 104 -96
0 -17 -22 -7 -82 38 -123 90 -262 145 -368 143 -43 -1 -42 -1 25 -16 124 -26
242 -81 338 -155 46 -37 39 -55 -11 -28 -20 11 -52 23 -72 26 -19 4 -44 13
-55 20 -23 16 -55 18 -55 4 0 -15 -83 -12 -123 5 -57 24 -65 18 -16 -13 61
-40 86 -69 71 -84 -9 -9 -25 -8 -65 5 -80 25 -101 20 -33 -8 81 -33 94 -48 36
-40 l-45 6 37 -17 c21 -9 35 -20 32 -25 -7 -12 3 -11 28 2 17 9 19 8 16 -8 -2
-12 -15 -20 -43 -24 -33 -5 -35 -6 -11 -8 52 -2 18 -15 -37 -13 l-52 1 43 -12
43 -12 -28 -27 c-15 -15 -24 -30 -21 -33 5 -5 41 22 131 99 15 13 35 27 44 31
11 4 14 9 7 13 -6 4 -14 24 -18 45 -8 45 5 67 40 67 20 0 25 -6 30 -42 6 -35
9 -39 19 -25 15 21 25 22 25 2 0 -8 -24 -30 -54 -49 -30 -19 -60 -45 -67 -58
-11 -22 -11 -22 7 -7 10 9 30 22 44 29 23 12 22 10 -7 -24 -33 -37 -49 -74
-41 -98 3 -7 12 3 22 24 15 32 56 80 56 66 0 -3 -11 -36 -25 -72 -25 -68 -33
-104 -16 -77 7 11 10 8 13 -13 2 -14 6 -25 9 -24 4 2 17 -6 28 -16 19 -17 26
-18 55 -8 18 7 51 12 74 12 45 0 143 -18 154 -29 4 -3 -67 -6 -158 -6 l-166 0
-31 36 c-18 19 -37 44 -44 55 -11 17 -12 15 -12 -17 -1 -31 -6 -38 -37 -53
-55 -26 -147 -44 -206 -41 -37 2 -45 0 -28 -5 14 -4 54 -9 90 -9 64 -2 65 -2
33 -16 -55 -24 -141 -83 -183 -127 -70 -71 -65 -82 8 -21 70 59 172 116 227
129 24 5 17 -2 -32 -35 -35 -23 -73 -57 -85 -74 l-23 -32 25 16 c83 54 132 81
171 94 l44 14 -30 -22 c-39 -29 -134 -121 -115 -111 8 4 29 18 46 30 40 31
132 71 180 79 l39 6 -25 -21 c-14 -12 -18 -19 -10 -16 145 50 180 53 180 20 0
-21 -21 -38 -85 -69 -27 -14 -45 -25 -39 -25 18 0 86 30 116 51 32 23 45 25
27 3 -21 -26 -87 -65 -169 -101 -41 -18 -70 -33 -64 -33 27 0 127 41 187 78
36 22 81 43 99 47 l33 6 -56 -53 c-67 -65 -164 -117 -284 -153 -85 -25 -167
-64 -180 -85 -3 -5 23 4 57 19 35 16 98 38 141 50 105 30 141 46 219 97 43 29
77 61 95 90 51 82 60 90 80 78 10 -6 20 -26 23 -45 l6 -34 7 38 c5 20 14 37
21 37 19 0 -7 -121 -35 -167 -25 -40 -33 -42 -25 -5 5 19 -2 11 -23 -24 -51
-87 -139 -158 -293 -234 -75 -37 -151 -73 -169 -79 l-31 -11 40 44 c40 44 67
84 60 92 -5 5 -223 -78 -276 -105 -54 -28 -109 -77 -129 -115 -15 -28 -12 -27
36 16 45 41 149 94 241 123 23 7 24 7 10 -10 -8 -10 -60 -39 -116 -66 -112
-53 -159 -96 -148 -133 4 -11 24 -50 45 -85 22 -36 39 -73 39 -82 0 -10 -11
-31 -25 -46 l-24 -28 -1 29 c0 16 -18 73 -39 127 -46 115 -47 149 -5 229 40
76 40 80 4 40 -25 -28 -29 -30 -19 -10 6 14 21 39 33 55 38 52 41 58 19 46
-30 -16 -83 -80 -101 -120 -13 -32 -16 -34 -22 -16 -11 28 -2 82 21 127 26 52
24 56 -12 22 -51 -49 -79 -119 -83 -210 -2 -47 -22 -25 -49 56 -18 54 -27 96
-24 124 l3 41 14 -32 c8 -18 17 -33 21 -33 3 0 9 33 12 73 12 141 78 273 164
327 59 37 40 39 -33 3 -84 -41 -162 -131 -228 -263 l-55 -110 -16 30 c-26 51
4 143 92 276 l17 27 -23 -12 c-31 -17 -79 -95 -99 -163 -9 -32 -20 -58 -23
-58 -9 0 -19 39 -19 76 0 90 163 225 323 269 l52 14 -40 0 c-58 1 -149 -24
-217 -61 -47 -25 -60 -28 -73 -18 -38 32 5 73 148 139 59 27 107 54 107 59 0
5 -10 17 -22 25 -31 21 74 -17 108 -40 31 -20 187 -24 206 -5 9 9 4 12 -28 13
l-39 1 43 9 c52 10 95 35 141 83 39 41 36 45 -11 16 -19 -12 -52 -20 -78 -21
-45 -1 -45 -1 -16 -13 l28 -13 -23 -6 c-38 -11 -82 -8 -133 7 -47 14 -48 14
-30 -5 23 -25 3 -25 -53 1 -43 19 -54 16 -30 -9 10 -12 8 -13 -8 -7 -11 5 -32
9 -46 10 -14 1 -42 12 -62 24 -38 22 -45 16 -27 -19 9 -16 7 -19 -14 -19 -13
0 -39 12 -56 27 l-32 27 7 -41 c5 -35 3 -43 -16 -56 -20 -14 -26 -14 -58 -1
-55 23 -81 52 -81 91 0 39 -6 40 -59 12 -33 -17 -54 -20 -116 -17 -41 2 -75 0
-75 -3 0 -7 74 -40 131 -58 20 -6 47 -23 60 -37 l23 -25 -22 -6 c-29 -7 -28
-19 8 -60 17 -18 30 -37 31 -41 0 -4 2 -29 5 -57 4 -52 5 -97 1 -206 -2 -58 1
-70 25 -101 19 -25 28 -49 29 -83 2 -28 11 -57 22 -71 14 -18 17 -32 11 -52
-4 -15 -6 -31 -4 -37 1 -5 7 -27 12 -49 5 -21 22 -58 38 -82 27 -38 30 -51 29
-108 -1 -51 3 -72 20 -100 13 -21 20 -44 17 -54 -8 -23 25 -67 66 -88 27 -14
31 -14 48 1 16 15 30 13 182 -29 148 -39 334 -70 316 -51 -3 4 -42 15 -85 25
-99 22 -111 28 -118 51 -7 21 -30 25 -41 8 -7 -12 -64 -7 -177 16 -51 11 -73
21 -91 42 -21 24 -22 29 -9 39 13 9 13 15 3 33 -8 16 -9 26 -1 34 7 7 1 21
-20 45 -24 27 -29 42 -27 70 5 59 32 48 122 -45 66 -70 78 -87 73 -109 l-5
-27 57 6 c32 4 62 3 67 -2 5 -4 45 -13 89 -20 44 -7 91 -15 104 -18 15 -4 22
-2 18 4 -4 6 -30 13 -58 17 -41 6 -60 15 -86 41 -31 31 -37 52 -32 113 0 10
15 7 83 -18 71 -25 84 -20 24 11 -23 12 -62 35 -86 51 -54 37 -55 71 -4 101
32 19 33 19 80 -1 63 -27 190 -52 279 -55 l72 -2 -36 -37 c-21 -21 -32 -38
-26 -38 5 0 50 22 99 49 49 27 105 52 124 56 51 11 96 36 193 108 61 46 93 64
107 60 21 -6 28 -23 8 -23 -20 0 -2 -11 27 -16 15 -3 41 -12 57 -20 32 -17 48
-12 48 15 0 32 39 71 70 71 30 0 47 14 30 25 -5 3 -10 26 -10 51 0 52 -10 55
-56 15 -43 -39 -90 -51 -192 -51 -78 0 -83 -1 -77 -20 5 -15 0 -21 -22 -26
-93 -20 -118 -31 -116 -48 3 -38 -168 -122 -272 -133 -96 -10 -297 35 -303 68
-6 33 50 78 181 147 73 38 175 94 228 125 129 74 160 78 176 20 10 -37 11 -36
12 29 1 57 4 68 21 73 20 6 60 51 60 67 0 6 -11 7 -25 4 -24 -6 -24 -5 -19 36
3 24 10 47 15 52 11 13 49 -22 43 -39 -4 -10 12 -12 78 -8 48 3 101 1 125 -6
46 -13 164 -88 171 -110 2 -7 -15 1 -38 18 -24 17 -52 31 -64 31 -16 -1 -11
-7 22 -26 46 -28 53 -48 22 -64 -41 -22 -16 -28 99 -23 177 9 241 -20 320
-141 45 -69 51 -107 26 -161 -15 -29 -50 -55 -77 -55 -6 0 -37 12 -69 26 -33
15 -62 24 -66 21 -19 -20 107 -97 159 -97 19 0 39 -12 66 -41 47 -51 75 -50
37 1 -22 29 -25 42 -20 75 13 78 38 149 96 268 44 91 60 116 65 102 4 -10 2
-38 -5 -63 -6 -25 -10 -46 -8 -48 12 -12 39 42 48 95 l10 62 -42 50 c-28 34
-47 48 -58 44 -12 -4 -24 6 -40 35 -22 40 -51 54 -51 25 0 -19 -19 -20 -26 -1
-8 21 14 56 34 56 10 0 34 -11 54 -25 42 -28 48 -30 48 -12 -1 16 -70 94 -70
79 0 -7 -4 -12 -10 -12 -16 0 -11 40 6 47 25 9 64 -17 147 -100 42 -43 77 -75
77 -72 0 3 -11 27 -25 53 -14 26 -25 53 -25 59 0 7 -3 13 -8 13 -4 0 -30 20
-57 43 -29 25 -56 42 -65 39 -13 -5 -13 -3 -1 11 18 22 32 21 88 -5 34 -16 59
-40 96 -90 27 -37 51 -68 53 -68 7 0 -17 54 -38 84 -42 61 -103 121 -123 121
-27 0 -32 32 -6 40 53 17 149 -87 182 -198 35 -119 36 -161 1 -262 -30 -87
-32 -127 -5 -90 12 17 13 16 14 -16 5 -195 -59 -328 -203 -420 -42 -27 -62
-33 -111 -35 -32 0 -80 3 -106 9 -64 13 -314 135 -380 186 -52 39 -81 51 -81
33 0 -4 6 -14 13 -21 10 -10 1 -12 -48 -8 -33 3 -74 8 -91 12 -26 6 -42 -1
-113 -49 -45 -30 -98 -60 -116 -66 -24 -8 -43 -26 -67 -63 -18 -28 -51 -72
-72 -97 -52 -60 -86 -134 -86 -190 0 -52 18 -83 62 -106 27 -14 29 -18 16 -30
-11 -12 -21 -12 -42 -4 -45 17 -51 12 -23 -18 l28 -29 -45 -41 c-44 -40 -76
-51 -103 -34 -10 6 -11 25 -5 75 5 38 5 70 1 73 -4 2 -15 -20 -23 -50 -22 -75
-32 -81 -142 -81 -89 0 -94 1 -140 33 -38 28 -53 33 -81 28 -18 -3 -48 -9 -67
-12 -40 -7 -76 10 -141 66 -52 45 -53 45 -79 25 -26 -20 -48 -6 -85 55 -34 56
-53 62 -77 25 -20 -31 -28 -31 -41 -2 -8 17 -7 30 5 52 67 128 43 321 -68 549
-63 131 -75 169 -85 281 -15 174 -28 262 -40 285 -18 34 -104 130 -117 130
-12 0 14 -44 48 -81 32 -33 30 -46 -2 -24 -35 23 -41 13 -14 -24 53 -75 -44
-9 -175 119 -55 53 -115 105 -134 115 -36 18 -35 20 -15 -30 10 -25 -141 66
-222 134 -82 68 -134 132 -134 165 0 29 77 157 122 205 21 21 61 58 90 82 l53
44 -33 -40 c-18 -22 -28 -41 -22 -43 5 -2 49 26 97 62 105 79 128 88 171 70
38 -16 42 -43 12 -92 -11 -17 -26 -49 -35 -70 -14 -36 -14 -36 3 -12 48 69 79
104 100 111 20 8 18 2 -15 -35 -25 -28 -46 -68 -61 -115 -14 -41 -37 -87 -54
-107 -36 -41 -129 -91 -187 -100 -23 -4 -41 -10 -41 -14 0 -9 36 -20 65 -20
11 0 54 -23 95 -50 95 -63 117 -64 48 -1 -47 43 -51 50 -39 65 22 26 91 63
142 76 42 11 52 9 126 -20 62 -23 93 -43 133 -81 52 -52 72 -58 52 -15 -10 23
-10 24 57 30 37 4 87 4 112 0 52 -8 167 -58 241 -107 74 -48 178 -99 178 -88
0 5 -14 21 -31 35 l-30 26 28 11 c15 6 56 11 91 12 34 1 62 3 62 4 0 1 -17 11
-37 22 -21 11 -54 36 -73 56 -33 35 -33 37 -10 30 14 -4 40 -13 58 -21 39 -16
41 -6 6 27 -14 13 -30 31 -35 40 -7 15 -4 16 28 8 21 -4 39 -7 41 -5 4 5 -85
42 -135 57 -24 7 -43 16 -43 21 0 13 91 9 135 -7 36 -13 38 -13 20 2 -11 8
-66 37 -122 65 -57 27 -103 52 -103 55 0 9 86 -5 195 -31 55 -14 102 -23 103
-21 8 8 -78 44 -153 64 -132 36 -235 72 -235 82 0 15 43 10 105 -11 79 -27 83
-16 7 17 -34 15 -62 30 -62 33 0 4 6 14 13 24 13 17 18 15 83 -32 88 -65 176
-108 256 -127 92 -21 104 -17 23 9 -38 12 -100 37 -136 56 -65 32 -159 103
-159 120 0 20 31 16 71 -11 53 -35 134 -61 293 -95 123 -26 259 -71 305 -100
l26 -17 -23 26 c-43 46 -139 84 -267 107 -194 34 -300 67 -360 113 -26 20 -8
44 21 29 66 -36 127 -62 174 -76 67 -20 111 -21 58 -1 -71 26 -108 47 -108 62
0 8 3 13 8 11 4 -1 36 -18 72 -35 36 -18 99 -42 140 -52 41 -11 84 -22 95 -26
12 -4 7 2 -10 14 -16 11 -66 33 -110 47 -91 30 -180 72 -171 81 3 4 28 -6 55
-20 27 -15 102 -41 167 -58 65 -17 121 -32 124 -34 3 -2 30 -13 60 -25 52 -20
54 -20 37 -2 -25 27 -76 48 -195 77 -120 30 -216 70 -207 85 8 13 47 6 120
-21z m-1291 3 c2 -4 -34 -18 -82 -31 -420 -115 -884 -254 -1130 -339 -78 -27
-145 -46 -147 -42 -7 11 42 29 379 139 277 91 616 192 836 250 126 33 137 35
144 23z m466 -49 c9 -8 -33 -33 -74 -44 -41 -11 -101 -5 -111 11 -4 6 13 10
39 10 33 0 51 6 64 19 12 14 25 18 47 14 17 -3 32 -7 35 -10z m1365 -392 c22
-10 57 -34 78 -54 35 -33 38 -39 32 -74 -7 -37 -7 -38 10 -15 9 12 23 22 31
22 23 0 16 -26 -11 -44 -16 -10 -25 -26 -25 -41 0 -18 -5 -25 -19 -25 -11 0
-23 4 -26 10 -4 6 -13 5 -26 -3 -17 -10 -22 -9 -31 7 -17 31 -81 93 -74 74 8
-26 -4 -22 -53 17 -57 45 -75 45 -31 0 l34 -35 -43 0 -43 0 30 -30 c17 -16 38
-30 48 -30 14 0 15 -3 7 -11 -9 -9 -19 -8 -40 6 l-28 18 19 -22 c13 -15 30
-21 55 -20 131 2 133 1 105 -71 -17 -41 -49 -55 -60 -26 -3 8 -17 17 -30 20
-14 4 -22 11 -19 17 4 6 -8 8 -32 5 -145 -19 -155 -18 -185 10 -30 29 -46 28
-30 -3 20 -38 -7 -56 -40 -26 -32 29 -23 77 34 177 60 106 70 116 117 116 20
0 50 7 66 16 70 38 121 42 180 15z m-117 -194 c2 -12 -1 -15 -12 -11 -22 8
-30 36 -9 32 10 -2 19 -11 21 -21z m-18 -146 c0 -8 -119 -3 -129 5 -2 2 26 4
62 4 37 0 67 -4 67 -9z m130 -84 c0 -6 -9 -2 -20 8 -11 10 -20 23 -20 28 0 6
9 2 20 -8 11 -10 20 -23 20 -28z m-155 -12 c17 -14 25 -25 18 -25 -7 0 -25 11
-40 25 -36 32 -17 32 22 0z m56 -1 c19 -23 -15 -18 -35 5 -17 19 -17 19 3 14
11 -3 26 -11 32 -19z m73 10 c9 -8 16 -23 16 -31 0 -13 -5 -12 -25 7 -14 13
-25 27 -25 32 0 13 17 9 34 -8z m-1674 -504 c13 -25 29 -42 45 -46 14 -3 39
-24 57 -47 35 -44 111 -97 140 -97 26 0 22 17 -7 36 -24 16 -25 18 -9 35 24
27 31 24 54 -22 15 -29 33 -46 63 -59 37 -17 45 -26 61 -72 11 -29 21 -59 24
-65 3 -10 -4 -9 -29 1 -40 17 -158 35 -249 38 -65 3 -65 3 -68 -25 -2 -16 19
-117 47 -225 27 -108 59 -246 70 -305 22 -115 36 -149 109 -261 44 -68 46 -74
47 -146 1 -59 8 -95 35 -169 31 -87 41 -102 115 -180 44 -47 95 -106 112 -131
30 -44 73 -89 73 -77 0 4 -7 25 -16 48 -17 40 -16 41 8 65 13 14 40 27 60 30
33 6 38 3 51 -22 8 -16 20 -53 27 -82 20 -86 36 -75 30 24 -1 17 7 41 18 54
29 36 47 14 62 -78 6 -42 25 -110 41 -150 39 -98 38 -107 -6 -81 -20 12 -59
22 -97 25 -36 3 -73 12 -87 22 -13 9 -65 44 -115 77 -175 115 -195 133 -263
236 -74 114 -156 283 -172 354 -6 28 -15 104 -22 170 -6 66 -17 134 -24 152
-17 40 -57 67 -89 59 -23 -6 -24 -3 -30 67 -9 88 -53 312 -67 341 -15 28 -50
55 -71 56 -19 0 -27 -33 -17 -72 6 -22 4 -28 -14 -34 -12 -4 -33 -17 -46 -31
-21 -20 -23 -27 -13 -49 17 -36 15 -54 -6 -54 -30 0 -59 28 -66 62 l-7 33 -19
-25 c-10 -14 -20 -23 -23 -20 -2 3 -9 43 -16 88 -7 46 -15 90 -18 98 -4 10 3
14 27 14 18 0 57 12 87 27 61 31 89 69 149 198 33 72 36 84 30 139 -3 34 -8
73 -12 89 -10 41 12 33 36 -13z m551 -113 c18 -34 39 -73 49 -87 9 -14 20 -38
23 -55 l5 -30 -38 43 c-21 23 -50 72 -64 107 -45 113 -28 128 25 22z m-907
-182 c17 -35 21 -75 8 -75 -13 0 -52 75 -52 99 0 30 25 16 44 -24z m2572 -259
c3 -13 -3 -55 -14 -92 -37 -126 -37 -138 -1 -178 29 -34 31 -40 25 -89 -8 -65
0 -89 54 -149 52 -60 71 -62 32 -5 -55 80 -58 96 -11 50 24 -23 61 -49 81 -58
70 -29 162 6 153 57 -3 13 -7 35 -11 51 -5 22 -2 27 14 27 10 0 27 -8 36 -19
14 -16 16 -32 10 -109 -6 -85 -5 -92 22 -148 19 -39 30 -78 32 -122 5 -68 -10
-104 -22 -56 -4 15 -22 47 -39 72 -27 37 -32 54 -34 108 -1 36 -5 69 -8 75 -4
5 -22 -3 -41 -21 -39 -34 -59 -36 -133 -14 -64 19 -124 71 -157 136 -13 26
-26 48 -28 48 -2 0 -27 -12 -54 -26 -85 -44 -126 -23 -162 81 -23 66 -45 105
-61 105 -6 0 -31 -18 -56 -40 -95 -83 -158 -75 -187 24 -19 66 -37 78 -110 75
-60 -3 -74 3 -86 37 -7 18 -4 39 11 79 11 30 23 55 27 55 4 -1 21 -20 39 -45
24 -32 46 -48 85 -63 43 -15 57 -27 71 -56 23 -48 60 -66 86 -42 11 10 25 32
32 49 16 42 16 42 32 28 18 -15 44 -5 52 20 15 46 38 13 85 -119 44 -126 66
-157 110 -157 30 0 35 4 43 34 6 23 3 67 -8 136 l-17 102 27 57 c15 32 29 55
32 52 2 -2 0 -13 -6 -24 -13 -25 -14 -32 -2 -32 5 0 16 19 26 42 15 39 15 43
0 54 -9 7 -14 17 -10 23 11 19 34 12 41 -13z m-1765 -268 c19 -14 54 -33 78
-42 107 -41 428 -109 699 -147 46 -6 80 -15 75 -19 -4 -4 -34 -17 -66 -30 -47
-18 -68 -21 -115 -16 -50 6 -267 63 -331 88 -20 7 -22 6 -12 -6 12 -14 231
-89 299 -102 36 -7 42 -20 13 -29 -12 -4 -44 6 -81 25 -82 41 -100 33 -20 -9
40 -21 58 -37 52 -43 -14 -14 -83 7 -184 58 -48 24 -91 44 -95 44 -12 0 61
-48 141 -93 39 -22 73 -41 75 -43 5 -4 -52 -53 -62 -54 -17 0 -157 62 -213 96
l-59 35 30 -30 c17 -16 74 -52 127 -79 l98 -50 -19 -23 -18 -23 -54 34 c-30
18 -65 41 -78 51 -33 26 -40 15 -10 -17 l24 -27 -45 7 -45 7 49 -50 c49 -50
57 -73 18 -52 -49 26 -42 4 18 -62 27 -30 47 -57 44 -60 -6 -6 -52 6 -83 22
-31 17 -26 -2 10 -44 34 -38 33 -40 -5 -25 -29 11 -32 4 -11 -24 8 -11 15 -26
15 -33 0 -26 -35 -12 -91 37 -70 61 -84 63 -74 14 4 -23 3 -34 -4 -30 -22 14
-93 130 -98 161 -4 28 -1 36 22 51 24 16 26 22 21 57 l-7 39 27 -21 c27 -22
74 -29 74 -11 0 5 -11 17 -26 26 -14 9 -31 29 -39 43 -11 22 -11 30 1 51 21
39 17 51 -32 101 -53 53 -53 76 -2 81 l33 3 -52 33 c-64 41 -71 70 -15 63 22
-3 13 14 -18 32 -34 20 -60 64 -60 100 0 40 12 39 31 -2 9 -21 32 -49 50 -63z
m1136 -54 c6 -17 -91 -117 -152 -157 -33 -21 -49 -36 -36 -32 49 15 152 65
196 95 39 27 45 28 45 13 0 -22 -8 -27 -175 -116 -71 -38 -121 -66 -110 -62
36 12 159 35 230 44 57 7 73 6 88 -7 25 -22 21 -32 -13 -26 -28 6 -126 -3
-118 -11 2 -2 37 -11 77 -19 66 -14 129 -41 119 -51 -2 -3 -26 2 -53 10 -26 8
-76 15 -109 14 -57 -1 -59 -1 -26 -10 178 -48 220 -71 220 -118 0 -44 -10 -44
-61 4 -64 59 -85 66 -198 64 -160 -3 -291 -43 -368 -113 -46 -41 -50 -43 -55
-18 -3 13 -26 -5 -96 -72 -67 -65 -96 -86 -104 -78 -16 16 -4 51 43 120 43 65
46 82 9 62 -11 -6 -29 -10 -38 -8 -13 2 -8 12 22 45 44 50 117 97 281 183 148
77 218 124 298 200 59 56 77 66 84 44z m-1449 -83 c8 -5 12 -21 10 -37 -2 -23
-8 -29 -28 -29 -18 0 -26 6 -28 23 -3 22 13 52 27 52 3 0 12 -4 19 -9z m1888
-116 c221 -86 375 -185 538 -343 83 -81 115 -135 116 -191 l0 -34 -31 43 -31
43 -59 -6 c-40 -3 -77 -15 -114 -36 -63 -36 -72 -37 -96 -15 -17 15 -21 15
-42 1 -13 -8 -32 -33 -41 -54 -9 -21 -21 -45 -27 -53 -43 -68 -35 -93 30 -98
22 -2 41 -7 41 -12 0 -10 -69 -211 -79 -228 -5 -9 -47 55 -120 185 -62 110
-159 263 -216 341 l-104 142 6 50 c3 27 9 50 12 50 3 0 50 -39 104 -86 54 -47
101 -83 104 -80 3 3 -6 24 -21 47 -32 48 -22 44 57 -24 31 -28 59 -48 62 -45
8 8 -147 153 -263 246 -102 83 -150 146 -138 179 9 22 38 14 222 -57 86 -33
159 -59 161 -56 8 8 -82 54 -227 116 -170 71 -173 73 -178 88 -4 12 129 -33
334 -113z"/>
<path d="M2813 4219 c4 -13 7 -29 7 -36 0 -7 7 -10 16 -6 22 8 14 57 -10 61
-15 3 -18 0 -13 -19z"/>
<path d="M3163 3631 c-44 -70 -149 -130 -369 -210 -290 -105 -286 -118 6 -20
234 79 222 77 175 32 -22 -21 -53 -48 -70 -61 -35 -26 -11 -19 54 15 67 35
145 99 176 142 23 34 61 131 51 131 -2 0 -12 -13 -23 -29z"/>
<path d="M2735 3615 c-49 -13 -122 -37 -162 -53 -68 -29 -213 -108 -213 -117
0 -2 30 9 66 25 77 35 88 37 54 10 -14 -11 36 9 110 45 74 36 163 74 198 86
59 20 76 30 50 29 -7 -1 -53 -12 -103 -25z"/>
<path d="M4257 3603 c-11 -10 -8 -23 5 -23 6 0 20 -7 30 -17 15 -14 18 -14 18
-1 0 8 -8 22 -18 31 -20 19 -26 20 -35 10z"/>
<path d="M2290 3520 c-31 -62 -61 -159 -59 -195 0 -11 7 0 14 25 14 47 29 91
64 178 11 28 19 52 16 52 -3 0 -18 -27 -35 -60z"/>
<path d="M2594 3481 c-55 -20 -140 -67 -150 -83 -3 -5 14 1 37 13 24 12 78 37
119 55 81 36 77 45 -6 15z"/>
<path d="M3936 3115 c10 -8 35 -14 54 -14 l35 1 -35 13 c-19 7 -44 14 -54 14
-20 1 -20 1 0 -14z"/>
<path d="M2907 3083 c-12 -11 -7 -33 8 -39 20 -8 45 13 38 32 -5 14 -34 19
-46 7z"/>
<path d="M4182 3026 c4 -69 25 -106 59 -106 23 0 69 56 69 83 -1 21 -2 20 -21
-5 -29 -39 -39 -35 -40 15 -2 33 -3 36 -6 12 -8 -52 -21 -49 -33 9 -16 78 -33
73 -28 -8z"/>
<path d="M3095 2927 c-11 -7 -55 -29 -98 -47 -78 -34 -106 -53 -71 -50 36 4
35 0 0 -42 -56 -65 -47 -76 25 -29 68 44 184 145 187 164 4 20 -16 22 -43 4z"/>
<path d="M4005 2896 c17 -8 62 -17 100 -20 l70 -6 -40 15 c-22 9 -67 18 -100
20 -58 5 -59 5 -30 -9z"/>
<path d="M3095 2837 c-11 -6 -45 -31 -76 -56 -30 -25 -77 -61 -103 -79 -47
-32 -55 -55 -14 -44 24 6 20 -7 -15 -45 -25 -28 -16 -40 17 -25 23 10 26 8 36
-23 16 -49 26 -44 34 18 14 109 17 116 83 187 66 71 75 88 38 67z"/>
<path d="M2505 2550 c-9 -15 13 -40 36 -40 37 0 31 32 -8 44 -12 4 -24 2 -28
-4z"/>
<path d="M3000 4107 c0 -8 -7 -17 -15 -21 -27 -10 -16 -23 16 -18 24 3 29 9
27 25 -3 24 -28 36 -28 14z"/>
<path d="M3235 3939 c-11 -17 1 -21 15 -4 8 9 8 15 2 15 -6 0 -14 -5 -17 -11z"/>
<path d="M3749 2458 c-5 -10 -3 -98 2 -98 19 0 33 39 30 83 -1 13 -27 25 -32
15z"/>
<path d="M2204 2001 c21 -23 76 -45 76 -31 0 9 -71 50 -86 50 -4 0 1 -9 10
-19z"/>
<path d="M2145 1959 c6 -9 78 -49 90 -49 3 0 5 4 5 9 0 4 -23 18 -50 29 -28
12 -48 17 -45 11z"/>
<path d="M2090 1923 c0 -5 14 -22 30 -38 29 -28 42 -24 18 6 -20 24 -48 42
-48 32z"/>
<path d="M1430 3610 c-26 -26 -25 -53 3 -86 41 -48 110 -28 110 32 0 32 -42
74 -74 74 -10 0 -28 -9 -39 -20z m88 -37 c4 -25 -16 -31 -36 -11 -20 20 -14
40 11 36 14 -2 23 -11 25 -25z"/>
<path d="M731 3341 c-21 -14 -5 -43 21 -39 15 2 23 10 23 23 0 22 -22 30 -44
16z"/>
<path d="M1220 3170 c-8 -15 -6 -24 9 -39 11 -11 28 -18 38 -16 10 2 21 4 26
4 12 1 8 46 -5 59 -19 19 -56 14 -68 -8z"/>
<path d="M993 2883 c-7 -3 -13 -13 -13 -24 0 -23 45 -27 54 -4 6 16 -22 35
-41 28z"/>
<path d="M3657 2874 c-11 -11 3 -24 24 -24 12 0 19 5 17 13 -5 14 -31 21 -41
11z"/>
<path d="M3407 2773 c-23 -23 25 -88 60 -81 28 5 29 53 1 72 -23 17 -50 21
-61 9z m63 -39 c0 -8 -6 -11 -15 -8 -8 4 -15 12 -15 20 0 8 6 11 15 8 8 -4 15
-12 15 -20z"/>
<path d="M3193 2733 c-20 -7 -15 -61 7 -83 26 -26 65 -26 84 1 19 28 2 67 -33
75 -14 3 -30 7 -36 8 -5 2 -16 1 -22 -1z m76 -39 c13 -11 12 -14 -3 -20 -17
-6 -56 20 -56 38 0 12 41 0 59 -18z"/>
<path d="M644 2679 c-9 -15 12 -33 30 -26 9 4 16 13 16 22 0 17 -35 21 -46 4z"/>
<path d="M4094 2676 c-11 -29 1 -61 23 -64 17 -3 24 3 29 22 3 14 4 33 0 41
-7 19 -45 20 -52 1z"/>
<path d="M4105 2560 c-8 -16 -15 -38 -15 -50 0 -20 32 -60 49 -60 21 0 41 33
41 66 0 73 -46 100 -75 44z m59 -19 c8 -12 -3 -41 -15 -41 -5 0 -9 11 -9 25 0
25 14 34 24 16z"/>
<path d="M373 2524 c-7 -3 -13 -16 -13 -28 0 -18 14 -28 71 -54 40 -17 76 -29
80 -26 32 19 -37 102 -91 109 -19 2 -41 2 -47 -1z m67 -29 c10 -12 10 -15 -3
-15 -23 0 -47 11 -47 21 0 15 37 10 50 -6z"/>
<path d="M1400 2366 c0 -2 20 -42 45 -88 25 -47 72 -156 106 -244 73 -193 109
-274 120 -274 12 0 13 -4 -16 94 -40 139 -45 167 -35 213 6 26 6 51 1 65 -6
13 -10 17 -10 11 -1 -7 -5 -13 -10 -13 -5 0 -16 34 -26 75 -9 41 -25 85 -36
97 l-20 23 6 -35 7 -35 -54 58 c-45 48 -78 70 -78 53z"/>
<path d="M2970 110 c-23 -23 -25 -36 -8 -46 7 -4 18 2 26 14 20 30 34 28 56
-9 17 -29 22 -31 57 -25 26 4 49 1 69 -9 32 -17 90 -20 90 -6 0 11 -47 27
-100 35 -19 4 -48 8 -65 11 -16 2 -34 11 -40 18 -10 13 -48 37 -59 37 -3 0
-15 -9 -26 -20z"/>
</g>
</svg>
