<?xml version="1.0" standalone="no"?>
<!DOCTYPE svg PUBLIC "-//W3C//DTD SVG 20010904//EN"
 "http://www.w3.org/TR/2001/REC-SVG-20010904/DTD/svg10.dtd">
<svg version="1.0" xmlns="http://www.w3.org/2000/svg"
 width="512.000000pt" height="512.000000pt" viewBox="0 0 512.000000 512.000000"
 preserveAspectRatio="xMidYMid meet">
<metadata>
Created by potrace 1.14, written by Peter Selinger 2001-2017
</metadata>
<g transform="translate(0.000000,512.000000) scale(0.100000,-0.100000)"
fill="#000000" stroke="none">
<path d="M2518 4695 c-2 -1 -50 -5 -108 -9 -58 -3 -118 -8 -135 -11 -81 -14
-102 -17 -125 -21 -235 -42 -544 -169 -760 -311 -175 -116 -389 -309 -485
-438 -17 -22 -35 -44 -42 -50 -30 -26 -162 -244 -218 -360 -120 -247 -177
-451 -210 -747 -7 -61 -8 -350 -1 -383 2 -11 7 -42 10 -70 4 -27 10 -66 12
-85 6 -38 10 -64 18 -95 2 -11 9 -40 15 -65 105 -455 404 -907 792 -1196 303
-225 672 -374 1014 -409 33 -4 71 -8 85 -11 31 -5 312 -5 360 0 162 17 245 31
340 57 41 12 83 22 93 24 44 9 202 72 312 124 364 173 691 471 904 824 28 47
51 88 51 92 0 4 8 19 18 33 26 37 104 228 137 332 34 108 72 285 80 375 4 39
9 79 11 90 5 26 5 334 0 360 -2 11 -7 49 -11 85 -4 36 -9 74 -11 85 -2 11 -6
31 -9 45 -3 14 -7 36 -10 50 -4 14 -9 39 -12 55 -13 74 -98 309 -154 424 -109
225 -233 397 -413 576 -135 135 -180 173 -316 264 -237 158 -462 254 -745 316
-140 30 -173 35 -320 41 -66 2 -130 6 -142 8 -13 2 -24 2 -25 1z m227 -439
c136 -18 137 -18 231 -41 692 -173 1213 -777 1281 -1490 15 -154 5 -376 -23
-495 -3 -14 -8 -34 -11 -45 -2 -11 -7 -33 -9 -49 -15 -78 -112 -320 -167 -411
-43 -72 -142 -217 -174 -254 -479 -561 -1223 -761 -1903 -511 -334 123 -625
353 -826 651 -157 234 -256 512 -282 787 -9 91 -8 296 1 352 3 19 8 55 12 80
18 134 82 333 155 481 243 495 695 832 1255 933 17 3 61 8 100 12 38 4 71 7
72 8 6 5 243 -2 288 -8z"/>
<path d="M2346 3426 c1 -111 2 -207 3 -213 1 -10 50 -13 211 -13 116 0 210 3
211 8 4 35 3 406 -1 411 -3 5 -99 8 -215 8 l-210 0 1 -201z"/>
<path d="M2351 2760 c-4 -8 -6 -296 -6 -640 l1 -625 212 -1 212 -1 1 26 c4
116 3 1213 -1 1232 l-5 24 -203 0 c-172 0 -205 -2 -211 -15z"/>
</g>
</svg>
